<svg xmlns:dc="http://purl.org/dc/elements/1.1/" xmlns:cc="http://creativecommons.org/ns#" xmlns:rdf="http://www.w3.org/1999/02/22-rdf-syntax-ns#" xmlns:svg="http://www.w3.org/2000/svg" xmlns="http://www.w3.org/2000/svg" version="1.1" id="svg8" viewBox="9.8 72.73 199.58 69.34">
  <defs id="defs2"/>
  <metadata id="metadata5">
    <rdf:RDF>
      <cc:Work rdf:about="">
        <dc:format>image/svg+xml</dc:format>
        <dc:type rdf:resource="http://purl.org/dc/dcmitype/StillImage"/>
        <dc:title/>
      </cc:Work>
    </rdf:RDF>
  </metadata>
  <g id="layer2" style="display:inline">
    <a id="a305" transform="matrix(1.7386179,0,0,1.8573755,-7.247406,-120.99237)">
      <path id="path301" style="fill:#ffff00;stroke:#000000;stroke-width:0.999999px;stroke-linecap:butt;stroke-linejoin:miter;stroke-opacity:1" transform="scale(0.26458333)" d="m 158.41016,397.24414 c -35.08435,0.52533 -70.182828,24.33846 -94.837894,46.32813 -10.328104,9.21154 -22.377455,23.60686 -20.714844,38.57031 0.350778,3.15719 0.05078,6.89453 2.142578,9.28515 4.724612,5.39955 9.527763,5.60849 15.511719,6.02539 8.310092,-3.18545 17.227534,-7.3515 20.916015,-8.88085 19.361606,-8.02799 38.877256,-16.07825 57.144536,-26.42969 7.19691,-4.07826 65.24244,-37.1344 54.28515,-53.57031 -4.97965,-7.46948 -15.29362,-9.63504 -23.57226,-10.71485 -3.61753,-0.47185 -7.24559,-0.66762 -10.875,-0.61328 z M 60.511719,497.45312 c -0.56814,0.21779 -1.134801,0.4392 -1.695313,0.64649 0.16265,0.0442 0.309723,0.10057 0.460938,0.15234 L 65,497.85742 c -1.582576,-0.19782 -3.058668,-0.30469 -4.488281,-0.4043 z m -3.09375,1.13868 c 0.0053,0.004 0.01028,0.008 0.01563,0.0117 0.0033,-10e-4 0.0065,-0.003 0.0098,-0.004 -0.0079,-0.002 -0.01768,-0.007 -0.02539,-0.008 z m -0.916016,0.0801 c -0.983003,0.10315 -2.027743,0.25979 -2.439453,1.0371 0.01774,0.005 0.03499,0.0104 0.05273,0.0156 0.727719,-0.23039 1.471434,-0.47863 2.234375,-0.74219 0.05072,-0.10355 0.101713,-0.20697 0.152344,-0.31054 z"/>
    </a>
    <path id="path481" style="fill:#d40000;stroke:#000000;stroke-width:0.47546px;stroke-linecap:butt;stroke-linejoin:miter;stroke-opacity:1" d="m 185.12454,78.424789 c -20.32219,0.998189 -44.51401,11.650738 -56.34037,26.992211 -4.02289,5.2186 -10.20214,15.21536 -4.07988,21.27069 0.33175,-0.14941 0.66611,-0.29244 0.99908,-0.43864 1.15152,-0.26733 0.52074,-0.10674 1.88676,-0.50103 0.74028,-0.17439 0.48265,0.0996 1.32253,-0.34745 0.66866,-0.35599 1.17553,-1.01156 1.84273,-1.36296 0.39264,-0.17143 0.7709,-0.38667 1.17787,-0.51447 1.56302,-0.49064 3.33079,-0.48911 4.94061,-0.36281 4.73407,0.37146 -1.71144,0.0913 2.41415,0.24284 0.3895,0.008 0.63911,0.0331 1.02604,-0.0394 1.10934,-0.20756 0.60038,-0.27283 1.9739,-0.38297 0.3784,-0.0307 0.7589,0.005 1.13835,0.004 0.36548,-0.002 0.73155,-0.006 1.09701,-0.01 1.73147,-0.0498 3.4658,-0.17048 5.1778,0.20924 1.2602,0.088 1.31128,0.0245 2.50849,0.35802 0.32868,0.0916 0.65044,0.21279 0.96584,0.34745 0.0436,0.0188 0.0662,0.0899 0.11321,0.0893 0.29909,-0.004 0.59474,-0.0691 0.89216,-0.10367 1.14244,-0.0334 1.57159,-0.10193 2.75647,0.12478 0.40021,0.0766 0.78895,0.21562 1.17428,0.35418 0.20799,0.0748 0.40201,0.18848 0.60196,0.28507 0.0892,0.0433 0.1676,0.12509 0.26505,0.13437 0.1926,0.0195 0.38575,-0.0322 0.5786,-0.0489 0.58134,-0.10604 1.12361,-0.22587 1.72234,-0.22652 1.5493,-0.001 2.99901,0.53211 4.41142,1.16426 0.0928,0.0418 0.17806,0.1155 0.27852,0.12478 0.48517,0.0422 0.97085,-0.0866 1.4573,-0.10558 0.70374,-0.0273 1.03047,-0.0207 1.73671,0.0998 0.29407,0.0501 0.58274,0.13043 0.8742,0.1958 0.67898,0.18987 1.36432,0.26476 2.04938,0.25532 2.76091,-1.29833 5.42627,-2.74971 7.95492,-4.31825 1.44436,-0.89595 3.19869,-1.92917 4.96217,-3.12136 -0.13641,-0.0635 -0.26717,-0.13377 -0.38364,-0.21788 -0.17426,-0.12584 -0.31886,-0.27694 -0.44204,-0.44536 -0.34111,-0.0247 -0.69517,-0.0253 -1.04131,-0.0403 -0.21871,0.0199 -0.44285,0.0314 -0.66486,0.046 -0.53265,1.31908 -1.37143,2.42363 -2.83732,1.63651 -0.0603,-0.0323 -0.12419,-0.0959 -0.18957,-0.17757 -0.0567,-0.003 -0.10372,-1e-5 -0.16352,-0.005 -0.19779,0.91371 -1.01795,1.29571 -3.26679,0.32538 -0.54829,-0.23661 -0.31725,-1.22286 -0.38454,-1.85054 -0.0468,-0.43606 -0.0827,-0.91109 -0.1141,-1.39942 -0.0368,-0.11529 -0.0756,-0.22988 -0.1141,-0.34459 -0.24307,-0.0707 -0.47757,-0.14075 -0.68822,-0.20827 0.003,0.41998 -0.01,0.60301 -0.062,-0.0211 -0.68963,-0.22391 -1.20007,-0.43675 -1.5759,-0.66323 -0.24098,0.0784 -0.45349,0.1507 -0.74392,0.23995 -0.13821,0.0425 -0.0735,-0.14171 0.01,-0.35226 -0.10824,0.13789 -0.27309,0.22036 -0.50673,0.24188 0.0438,0.21333 0.0953,0.39697 0.14735,0.52022 -0.0635,-0.0404 -0.12563,-0.0828 -0.15543,-0.13053 -0.0865,-0.13867 -0.17691,-0.2686 -0.26954,-0.39353 -0.47952,-0.0466 -1.18267,-0.2875 -2.24434,-0.81969 -0.35609,-0.17851 -0.3479,-0.6491 -0.31267,-1.14123 -0.0588,-0.0266 -0.12101,-0.05 -0.18058,-0.0758 -0.0129,0.10086 -0.0256,0.20134 -0.0386,0.30235 -0.13595,0.41343 0.002,1.24195 -0.4079,1.24009 -1.19994,-0.007 -2.53274,-0.37788 -3.40065,-1.26313 -0.47365,-0.4831 -0.40379,-1.27828 -0.42767,-2.02619 -2.33916,-1.16888 -4.60887,-2.70084 -6.84623,-3.89593 -3.58386,-1.91434 -9.85786,-4.17887 -9.85786,-9.478279 0,-1.948867 3.5615,-3.427144 4.27126,-3.860414 3.13739,-1.915252 6.40791,-2.717572 9.85785,-3.861381 4.68722,-1.554007 9.41753,-2.721292 14.12912,-4.212671 0.63626,-0.201398 5.97336,-1.978082 6.5713,-2.457153 0.34933,-0.279904 -0.49718,-1.526 -1.60733,-2.655838 l 4.88131,1.366791 c -0.42019,-1.729423 -0.63786,-2.895312 -0.82029,-4.29042 z m -38.0487,48.008551 c -0.8193,-0.0112 -1.64087,0.03 -2.46447,0.0537 -0.77594,0.0762 -1.55732,-0.0532 -2.33329,0.006 -0.31033,0.0236 -0.89648,0.23134 -1.21111,0.28891 -0.85079,0.15547 -0.92082,0.12132 -1.77446,0.13246 -3.87463,-0.13535 2.02556,0.11443 -2.86876,-0.27547 -1.0938,-0.0871 -2.7543,-0.0612 -3.79778,0.31674 -0.19418,0.0703 -0.36598,0.19777 -0.54895,0.29658 -0.77908,0.81356 -1.71341,1.34065 -2.75018,1.6989 -0.34696,0.11986 -0.71417,0.15497 -1.07095,0.23611 2.73397,1.36499 5.82277,1.9711 8.74287,2.55602 9.23625,1.85009 18.97743,0.54408 28.06595,-2.6328 -0.008,-0.001 -0.0167,-0.003 -0.0252,-0.005 -1.08926,-0.33459 -2.11385,-0.93264 -3.24881,-1.09516 -0.55857,-0.08 -1.12044,0.0673 -1.66484,0.17373 -0.93799,0.097 -1.03836,0.18147 -2.07454,-0.10366 -1.14165,-0.31414 -0.94957,-0.5267 -1.97929,-0.69108 -0.59982,-0.096 -1.17259,-0.0347 -1.77176,-0.004 -0.78459,0.1777 -1.58724,0.0308 -2.34318,-0.21788 -0.28435,-0.0935 -0.55514,-0.23155 -0.84275,-0.3129 -0.58671,-0.16679 -0.97521,-0.14014 -1.58757,-0.16317 -0.81466,-0.18369 -1.63169,-0.24706 -2.45098,-0.25819 z"/>
    <path id="path483" style="fill:#ff6600;stroke:#000000;stroke-width:0.47546px;stroke-linecap:butt;stroke-linejoin:miter;stroke-opacity:1" d="m 117.28754,80.044014 c -1.97126,0.0055 -3.95124,0.282037 -5.91813,0.45016 -14.366437,1.22782 -25.320818,6.30562 -38.444019,12.637059 -1.250729,0.603428 -2.426811,1.371283 -3.614491,2.105859 -2.974848,1.839916 -6.011227,3.578956 -8.871349,5.615938 -1.750574,1.24676 -3.30484,2.78383 -4.928931,4.21267 -0.239131,0.21039 -0.618344,0.37325 -0.656769,0.70163 -0.279911,2.39225 0.447631,2.34283 2.300047,2.80846 8.927861,2.24417 21.575959,1.53692 30.557374,0.70259 8.743324,-0.81223 16.803678,-2.9963 25.300508,-5.26561 1.85568,-0.49562 3.71349,-0.99021 5.58661,-1.40422 1.04502,-0.23099 2.09939,-0.40813 3.15537,-0.57493 1.81375,0.17593 3.56844,0.55302 5.11671,1.23049 4.44478,-3.699893 8.30679,-8.306347 7.82824,-14.696847 -0.54993,-7.343747 -11.58845,-7.998342 -15.44355,-8.424383 -0.65424,-0.0723 -1.31054,-0.100704 -1.96762,-0.09887 z m 9.58293,23.220096 c -1.87165,1.55798 -3.84495,2.95853 -5.6441,4.25875 -7.01726,5.07121 -14.15464,9.72327 -21.643798,13.53929 0.550148,0.62134 1.005588,1.38678 1.376428,2.39477 0.091,0.31627 0.16977,0.59363 0.2354,0.85904 7.96742,-1.26485 7.31682,-2.18193 13.7895,-4.85863 1.61498,-0.66786 3.32586,-1.05237 4.92802,-1.75457 1.35602,-0.5943 14.50978,-5.33526 11.1723,-10.88153 -1.0003,-1.66232 -2.47771,-2.79748 -4.21375,-3.55712 z m -8.71143,-1.34375 c -1.71897,0.29261 -3.42306,0.62822 -4.48958,0.68819 -0.90945,0.0511 -1.82019,0.038 -2.73131,0.0211 0.0258,-0.005 0.088,-0.0189 0.10243,-0.0211 1.99624,-0.30466 4.51631,-0.62817 7.11846,-0.68819 z m -42.275936,11.56973 c -3.787662,0.57805 -7.336592,1.84976 -11.172297,2.10586 -2.298165,0.15345 -4.603336,0.17596 -6.90014,0.35129 -0.772494,0.059 -1.531555,0.24858 -2.300047,0.3513 -0.108677,0.0148 -0.405374,-0.0828 -0.327936,0 0.896674,0.95792 10.518601,3.68661 12.157007,4.21171 0.996923,0.31952 1.977971,0.62291 2.952326,0.91664 0.597331,-0.27565 1.192298,-0.5694 1.769955,-0.38777 1.783994,-0.2985 2.050914,-0.3971 3.676482,-0.4444 z m 20.3051,9.22584 c -1.781133,0.83334 -3.581241,1.62246 -5.407805,2.35157 2.315338,0.0416 4.68457,-0.0587 7.140927,-0.32058 -0.03027,-0.0515 0.0328,0.0574 -0.05031,-0.0893 -0.248493,-0.57012 -0.35292,-0.95964 -0.78525,-1.39943 -0.112334,-0.11432 -0.269662,-0.16201 -0.402508,-0.24763 -0.166984,-0.10752 -0.330729,-0.19792 -0.495049,-0.29467 z m -5.407805,2.35157 c -3.845558,-0.0691 -7.55005,-0.52134 -11.272923,-1.27368 -1.13724,0.50279 -2.420169,0.27403 -3.619878,0.30138 -0.08871,0.002 -0.140252,0.007 -0.221021,0.01 l -0.112307,5.53244 c 5.286464,-1.0628 10.342693,-2.6204 15.226129,-4.56973 z"/>
    <path id="path485" style="fill:#f4d7d7;stroke:#000000;stroke-width:0.47546px;stroke-linecap:butt;stroke-linejoin:miter;stroke-opacity:1" d="m 176.0097,84.08488 c -8.69515,-0.08779 -17.3607,1.611799 -24.88273,5.536276 -3.72086,1.941268 -12.98564,6.667813 -13.47144,12.636104 -0.48574,5.96758 3.97722,10.02311 9.20018,10.88153 1.94046,0.31893 3.87985,0.7137 5.82649,1.00494 3.19244,-0.86248 8.34832,-1.35271 11.88387,-1.56931 -0.0257,-0.4972 0.009,-1.03122 -0.0916,-1.49157 -0.17759,-0.81439 -0.39557,-1.61891 -0.62083,-2.41972 -0.10869,-0.38639 -0.34319,-0.73875 -0.38005,-1.14027 -0.0459,-0.49958 0.0924,-0.99875 0.13836,-1.49829 0.23571,-2.55958 1.75955,1.3884 2.52736,2.20856 0.0562,-0.48692 0.11843,-0.97241 0.20934,-1.45318 0.1951,-1.03173 0.0409,-2.39285 0.82298,-3.03304 1.80667,-1.47889 2.78648,-0.89789 3.38359,0.23995 0.0228,-0.027 0.0444,-0.0544 0.0701,-0.0797 0.8379,-0.82585 2.19199,-1.02327 3.32249,-0.86577 -0.0381,-0.0578 -0.0627,-0.0987 -0.0171,-0.0797 0.18526,0.0772 0.3664,0.16346 0.54806,0.24955 0.82923,-0.54232 1.64482,-1.12855 2.58666,-1.30248 0.36504,-0.0674 0.24143,0.75428 0.2875,1.14699 0.001,0.0112 0.001,0.0225 0.003,0.0336 0,0 9.2e-4,0 9.2e-4,0 0.28175,0.0566 0.52129,0.26738 0.74033,0.5567 0.0316,-0.20498 0.0621,-0.41032 0.097,-0.61429 1.07222,-0.33914 2.12978,-1.21711 3.21198,-1.1969 0.0363,-0.10397 0.0726,-0.20831 0.1195,-0.30906 -0.27181,-0.39064 -0.52138,-0.75735 -0.21833,-0.75155 0.23641,0.005 0.44757,0.0255 0.65587,0.049 0.21173,-0.25921 0.47513,-0.50416 0.79514,-0.73331 -0.0411,-0.242114 -0.0677,-0.407584 -0.11141,-0.663236 -0.0604,-0.838951 -1.53475,-6.507386 1.65855,-5.839576 0.34668,-0.625282 0.99751,-1.015316 2.10957,-0.981903 -0.10101,-0.414384 -0.10068,-0.836518 -0.0189,-1.265051 -0.13776,-0.101927 -0.40933,-0.300913 -0.50494,-0.371452 l -0.003,0.0029 c -2.00739,-1.481 -1.3305,-3.3608 0.26595,-3.380502 0.33946,-0.0044 0.72352,0.08703 1.12936,0.272587 -0.29398,-1.10248 -0.52975,-2.001135 -0.74213,-2.816128 -3.46571,-0.595678 -7.00102,-0.927055 -10.5317,-0.962703 z m -23.3275,30.05885 c -1.17299,0.3169 -2.09084,0.68123 -2.54083,1.10188 -0.93331,0.87241 -0.708,2.49741 -0.32884,3.51008 0.716,1.91224 1.58515,3.45883 2.63068,4.86152 0.24754,0.0798 0.4923,0.17015 0.73224,0.27259 0.0436,0.0188 0.0662,0.0899 0.11321,0.0893 0.29909,-0.004 0.59474,-0.0691 0.89216,-0.10366 1.14244,-0.0334 1.57159,-0.10193 2.75647,0.12478 0.40021,0.0766 0.78895,0.21562 1.17428,0.35417 0.20799,0.0748 0.40201,0.18849 0.60196,0.28507 0.0892,0.0433 0.1676,0.12509 0.26505,0.13438 0.1926,0.0195 0.38575,-0.0322 0.5786,-0.0489 0.58134,-0.10604 1.12361,-0.22587 1.72234,-0.22652 1.5493,-10e-4 2.99901,0.53211 4.41142,1.16427 0.0928,0.0418 0.17806,0.11549 0.27852,0.12478 0.48517,0.0422 0.97085,-0.0866 1.4573,-0.10558 0.70374,-0.0273 1.03047,-0.0207 1.73671,0.0998 0.29407,0.0501 0.58274,0.13043 0.8742,0.1958 1.53668,0.42971 3.10664,0.30095 4.62974,-0.16893 0.5344,-0.10239 1.07682,-0.15635 1.60733,-0.27931 1.68328,-0.3902 3.29046,-1.02895 4.91007,-1.63938 0.4455,-0.11987 0.8839,-0.27802 1.3369,-0.35993 1.22182,-0.22084 1.21704,-0.0876 2.3288,-0.0893 0.71899,-9.8e-4 0.97575,-0.0491 1.69718,-0.19388 -0.20893,-0.32263 -0.40964,-0.64846 -0.59118,-0.98094 -0.70609,-1.29311 -1.37068,-2.68852 -1.96583,-4.14837 -0.28219,-0.0134 -0.57084,-0.0155 -0.85353,-0.0278 -0.21871,0.0199 -0.44285,0.0314 -0.66486,0.046 -0.53265,1.31908 -1.37143,2.42363 -2.83732,1.63651 -0.0603,-0.0323 -0.12419,-0.0959 -0.18957,-0.17757 -0.0567,-0.003 -0.10372,-1e-5 -0.16352,-0.005 -0.19779,0.91372 -1.01795,1.29571 -3.26679,0.32539 -0.54829,-0.23662 -0.31725,-1.22287 -0.38454,-1.85055 -0.0468,-0.43606 -0.0827,-0.91109 -0.1141,-1.39942 -0.0368,-0.11529 -0.0756,-0.22987 -0.1141,-0.34458 -0.24307,-0.0707 -0.47757,-0.14075 -0.68822,-0.20828 0.003,0.41998 -0.01,0.60301 -0.062,-0.0211 -0.68963,-0.22391 -1.20007,-0.43676 -1.5759,-0.66324 -0.24098,0.0784 -0.45349,0.1507 -0.74392,0.23995 -0.13821,0.0425 -0.0735,-0.14171 0.01,-0.35226 -0.32516,0.41423 -1.09791,0.3862 -3.02869,-0.58165 -0.34911,-0.175 -0.34772,-0.63097 -0.31446,-1.11243 -0.0647,0.006 -0.12939,0.011 -0.19407,0.0173 -0.008,0.0602 -0.0156,0.12015 -0.0234,0.18044 -0.13594,0.41344 0.002,1.24196 -0.4079,1.2401 -1.09327,-0.006 -2.29271,-0.31997 -3.15448,-1.04429 -2.72254,0.29531 -5.44579,0.56848 -8.17774,0.5279 -1.46003,-0.0217 -2.91152,-0.18268 -4.3593,-0.39928 z m 16.28721,-1.78719 c -0.004,0.0336 -0.008,0.0672 -0.0126,0.10078 0.009,2.3e-4 0.018,4.9e-4 0.027,9.8e-4 -0.003,-0.0207 -0.006,-0.0395 -0.0143,-0.10174 z m 19.99243,14.01345 c -0.27628,0.0336 -0.55273,0.0652 -0.82927,0.0979 -1.01749,0.2771 -2.0507,0.45874 -3.10237,0.47991 -1.0358,0.0208 -1.24478,-0.11998 -2.19673,0.0797 -0.27063,0.0568 -0.52829,0.16965 -0.79243,0.25435 -1.61979,0.63053 -3.24522,1.25414 -4.93432,1.6461 -0.61401,0.14246 -1.23967,0.21958 -1.85801,0.33882 -1.55926,0.42831 -3.22257,0.66379 -4.8292,0.39161 -0.37884,-0.0642 -0.74986,-0.17297 -1.12486,-0.25916 -0.82774,-0.28933 -1.63882,-0.21722 -2.48603,-0.15357 -0.20122,0.015 -0.4026,0.0626 -0.60376,0.0461 -0.39163,-0.031 -0.77693,-0.12418 -1.1653,-0.18621 -1.08926,-0.33459 -2.11385,-0.93264 -3.24882,-1.09516 -0.55856,-0.08 -1.12044,0.0673 -1.66483,0.17373 -0.93799,0.097 -1.03836,0.18146 -2.07454,-0.10366 -1.14166,-0.31414 -0.94957,-0.5267 -1.9793,-0.69108 -0.0617,-0.01 -0.12213,-0.0115 -0.18328,-0.0182 0.0571,0.0537 0.10938,0.10633 0.16711,0.16029 7.44691,6.96113 15.65794,7.91761 24.97168,10.17895 0.57513,0.13966 1.09565,0.46858 1.64327,0.70259 1.64289,0.23401 3.28604,0.46761 4.92893,0.70163 1.41635,0.22697 4.11282,0.30038 6.4581,-0.23995 -0.003,-0.0477 -0.006,-0.0773 -0.01,-0.13726 -0.75991,0.0589 -1.44905,-0.48787 -2.13922,-1.02605 -0.27152,0.0909 -0.54565,0.1193 -0.82478,0.0259 -0.27185,-0.0909 -0.23108,-0.34763 -0.089,-0.66516 -0.0599,-0.0352 -0.11921,-0.0767 -0.17969,-0.1075 -0.0992,-2.95662 -0.22416,-5.91128 -0.35219,-8.86591 -0.49424,-0.56941 -0.99502,-1.14118 -1.50133,-1.72864 z"/>
    <path id="path487" style="fill:#00ffff;stroke:#000000;stroke-width:0.47546px;stroke-linecap:butt;stroke-linejoin:miter;stroke-opacity:1" d="m 67.719737,85.56589 c -1.688156,4.92e-4 -3.642115,0.948874 -6.951353,2.651037 -3.422888,1.760634 -6.987606,4.728245 -9.956685,8.349524 0.377511,-0.230624 0.743568,-0.445172 1.085337,-0.627729 L 75.225437,90.67408 c -3.604711,-3.543558 -5.335211,-5.10905 -7.5057,-5.10819 z M 50.811699,96.566451 c -2.839283,1.734529 -6.514431,4.682699 -8.443687,6.743729 -2.494971,2.66539 -3.520645,7.30997 -2.62888,10.88251 0.164555,0.65923 0.700001,1.14431 0.985607,1.75455 0.15489,0.33095 0.06997,0.80711 0.328833,1.05293 1.157314,1.09899 2.343619,1.81785 3.608198,2.2959 -0.270729,-1.15416 -0.488696,-2.38425 -0.651382,-3.70012 -0.813508,-6.58017 2.3115,-13.55343 6.801311,-19.029499 z M 44.66177,119.29607 c 0.493158,2.1024 1.167048,3.95122 2.023323,5.6025 0.712343,-0.18396 1.425151,-0.36536 2.142816,-0.52886 5.957935,-1.48889 -1.582842,0.37451 4.327859,-1.01741 2.737024,-0.64455 5.449238,-1.50547 8.255912,-1.73441 1.22787,-0.0416 1.123411,-0.0273 2.463566,-0.12574 1.037312,-0.0763 1.58912,-0.18062 2.629776,-0.10557 0.163,0.0117 0.313902,0.10471 0.476184,0.12477 0.233827,0.0281 0.470893,0.0146 0.706188,0.0221 0.06261,0.007 1.175526,0.10852 1.366549,0.2246 0.08046,0.0489 -0.367846,0.0111 -0.276723,0.0278 1.091078,0.2083 2.217489,-1.08232 3.284752,-0.74675 1.879612,-0.31449 2.028434,-0.40979 3.908285,-0.45399 0.476744,-0.0114 0.953677,0.0274 1.430339,0.0422 0.06523,0.002 0.594429,0.0449 0.747515,-0.0135 0.213256,-0.0813 0.411299,-0.20091 0.617241,-0.30139 0.326864,0.20699 -0.02995,0.007 0.856229,-0.4204 0.651787,-0.31457 1.407426,-0.24424 2.085314,-0.4396 0.915239,-0.29943 1.844748,-0.59075 2.802285,-0.69587 0.967202,-0.10625 1.959957,0.0361 2.929863,-0.0259 0.269764,0.0169 0.540212,0.0267 0.809506,0.0509 0.215069,0.0191 0.361536,0.107 0.589387,0.0921 0.461808,-0.029 1.126894,-0.18222 1.541754,-0.26395 0.411832,-0.0814 0.819295,-0.19349 1.235373,-0.24476 1.529039,-0.18861 3.080637,0.10564 4.568647,0.44632 2.288592,1.04093 3.813956,2.03256 4.77529,4.64556 0.39114,1.35958 0.60727,2.09932 0.13836,3.50816 -0.002,0.005 -0.005,0.009 -0.006,0.0144 1.53415,0.54458 3.09695,1.0233 4.29821,2.27094 0.3352,0.36009 0.84879,0.92999 1.22729,1.27657 0.16832,0.15411 0.35675,0.28123 0.52471,0.43576 0.21008,0.19334 0.38831,0.48158 0.66665,0.58838 0.28012,0.10739 0.57739,0.15405 0.86611,0.23131 0.36572,0.0554 0.73413,0.0923 1.09701,0.16605 0.0866,0.0174 0.16593,0.0655 0.24528,0.10654 0.0368,0.0189 0.0621,0.0841 0.10153,0.0729 0.29155,-0.087 0.56321,-0.23812 0.84544,-0.35514 2.04741,-0.84822 1.1333,-0.50653 3.21917,-1.18154 5.75111,-1.88249 -1.40041,0.42687 2.80228,-0.8552 1.20249,-0.36683 2.29193,-1.05467 3.48781,-1.44838 0.94358,-0.31549 1.90081,-0.60428 2.83373,-0.95503 0.80061,-0.30099 0.3586,-0.16703 1.21291,-0.56342 0.39141,-0.18159 0.78948,-0.34693 1.18417,-0.52022 1.15151,-0.26733 0.52074,-0.10674 1.88675,-0.50103 0.74028,-0.17439 0.48266,0.0996 1.32253,-0.34745 0.66867,-0.35599 1.17553,-1.01156 1.84273,-1.36296 0.39265,-0.17143 0.77091,-0.38667 1.17788,-0.51447 1.56301,-0.49064 3.33078,-0.48911 4.94061,-0.36281 0.85314,0.0669 1.26051,0.10822 1.51479,0.13918 0.98222,-0.679 1.82827,-1.31295 2.22368,-1.73537 3.37123,-3.6015 2.71625,-9.0752 -0.32794,-12.63706 -4.94488,-5.78574 -12.51605,-7.2568 -19.38597,-8.42439 -6.60878,-1.123206 -16.27793,-3.429475 -22.672531,-2.808444 -9.680473,0.940165 -14.186544,1.815251 -23.000465,6.318534 -1.725592,0.88166 -3.569111,1.49553 -5.256867,2.45715 -4.069951,2.31891 -7.870576,5.75979 -11.500233,8.77568 -0.02217,0.0186 -3.343403,3.00082 -3.614486,3.15879 -1.576084,0.91839 -4.142536,1.90114 -5.914533,1.75552 -1.549896,-0.12737 -2.956393,-0.36441 -4.277549,-0.86385 z m 47.851751,2.53203 c -0.267518,-0.002 -0.536058,0.0112 -0.805016,0.047 -0.22689,0.0303 -0.44453,0.11577 -0.666655,0.17372 -0.836356,0.1805 -1.67505,0.35814 -2.532747,0.31579 -0.413645,-0.0204 -0.780921,-0.13221 -1.193149,-0.12478 -0.916233,0.0615 -1.85185,-0.0715 -2.765447,0.0278 -0.500476,0.0545 -1.380023,0.37086 -1.866092,0.53653 -0.299931,0.071 -0.596209,0.15997 -0.899355,0.21309 -0.247458,0.0434 -0.501553,0.0354 -0.749309,0.0768 -0.06862,0.0115 -0.127828,0.0593 -0.194069,0.0816 -0.117661,0.0396 -0.244509,0.0489 -0.356687,0.10366 -0.0565,0.0275 0.240387,-0.0504 0.18508,-0.0202 -0.265025,0.14491 -0.548436,0.24562 -0.822984,0.36857 -1.216218,0.72795 -2.639358,0.43735 -3.959493,0.46744 -1.514558,0.0345 -1.800334,0.1443 -3.304518,0.40985 -1.19108,0.11848 -2.307941,0.79513 -3.519256,0.77841 -0.562674,-0.008 -1.133776,-0.2115 -1.698078,-0.25627 -1.631796,-0.0233 1.552191,0.0481 -1.486943,-0.19388 -0.198789,-0.0158 -0.397067,0.04 -0.595676,0.0586 -0.382249,0.0347 -0.764636,0.0712 -1.147332,0.0998 -1.377553,0.10289 -1.334482,0.0892 -2.618097,0.13437 -2.58625,0.25381 -5.088706,1.05006 -7.616209,1.64515 -5.775094,1.35967 1.172583,-0.36046 -4.324266,1.01645 -0.298905,0.069 -0.595184,0.14787 -0.893067,0.22076 2.451702,3.11947 5.81167,5.45165 10.113019,7.59606 4.410556,2.19883 10.023829,3.30496 14.785882,3.86137 4.367301,0.51032 8.749879,0.97472 13.142613,1.05293 2.201145,0.0392 4.388369,-0.40469 6.572204,-0.70163 10.340416,-1.40594 14.781746,-1.86899 24.971676,-5.96723 3.34463,-1.34516 6.58775,-2.95831 9.81024,-4.61772 -0.24246,0.0667 -0.48164,0.1471 -0.72236,0.22076 -0.31562,0.0752 -0.63135,0.15033 -0.94697,0.22555 -1.55099,0.91885 -3.27439,1.39772 -4.95589,1.95997 -1.15817,0.42642 -2.24027,1.04678 -3.41503,1.42342 -0.45181,0.14486 -0.91205,0.25614 -1.36834,0.38393 -0.50749,0.16731 -1.0154,0.33368 -1.52288,0.50103 -1.64403,0.22907 -3.24047,1.60687 -4.89839,1.61059 -0.028,7e-5 -1.92969,-0.28269 -2.0323,-0.29755 -0.93225,-0.23343 -1.38468,-0.25975 -2.20751,-0.79569 -0.34797,-0.22666 -0.64432,-0.53225 -0.96674,-0.79858 -0.71405,-0.58983 -1.34223,-1.25374 -1.98019,-1.93501 -1.23715,-1.15692 -2.97835,-1.23618 -4.411419,-1.96284 -0.307107,-0.15572 -0.665519,-0.29062 -0.85623,-0.59125 -0.327779,-0.51672 -0.418088,-1.16594 -0.627121,-1.7488 -0.446954,-0.36888 0.993482,-1.63129 1.018847,-2.0905 0.0018,-0.0368 -0.08005,-0.0146 -0.09344,-0.049 -0.397011,-1.01227 0.295004,0.28341 -0.222819,-0.6306 -0.248493,-0.57013 -0.35292,-0.95964 -0.78525,-1.39943 -0.112334,-0.11432 -0.269662,-0.16201 -0.402508,-0.24764 -0.586889,-0.37787 -1.14167,-0.6822 -1.774449,-0.9627 -0.796226,-0.0738 -1.592728,-0.21445 -2.395283,-0.2198 z m 7.28917,4.56876 c -0.0173,-0.0266 -0.10526,0.0388 -0.07727,0.0518 0.04605,0.0206 0.09384,0.0376 0.14016,0.0576 -0.02199,-0.0358 -0.04007,-0.0742 -0.06289,-0.10942 z"/>
    <path id="path489" style="fill:#008080;stroke:#000000;stroke-width:0.47546px;stroke-linecap:butt;stroke-linejoin:miter;stroke-opacity:1" d="m 69.657705,89.908141 c -3.518303,-0.127659 -11.652265,2.522155 -13.489414,3.223092 -9.34899,3.56698 -17.460618,8.780327 -24.64374,16.147147 -3.313915,3.39866 -9.1164,9.01699 -12.136339,15.19403 0.244922,0.0695 0.453852,0.18388 0.624426,0.33114 0.608994,0.0476 1.219375,0.0986 1.892148,0.15261 2.475458,0.12009 4.946353,0.26564 7.402376,0.64117 3.183385,0.48672 0.728814,0.17887 3.840898,0.86768 0.71304,0.15782 1.436399,0.25772 2.154497,0.38681 0.673282,0.0364 1.346094,0.13728 2.019729,0.10942 0.611657,-0.0254 1.214696,-0.16715 1.819372,-0.26875 3.278588,-0.55118 6.444919,-1.58433 9.686251,-2.32278 5.957935,-1.48889 -1.582842,0.37451 4.327859,-1.01741 2.737024,-0.64455 5.449238,-1.50547 8.255912,-1.73441 1.22787,-0.0416 1.123411,-0.0273 2.463566,-0.12574 1.037312,-0.0763 1.58912,-0.18062 2.629776,-0.10557 0.163,0.0117 0.313902,0.10471 0.476184,0.12477 0.233827,0.0281 0.470893,0.0146 0.706188,0.0221 0.06261,0.007 1.175526,0.10852 1.366549,0.2246 0.08046,0.0489 -0.367846,0.0111 -0.276723,0.0278 0.739502,0.14118 1.494607,-0.39838 2.237154,-0.66132 1.898919,-1.8721 3.643886,-3.88765 4.539896,-5.5286 2.538838,-4.64957 4.547804,-10.94966 -0.656769,-14.39162 -2.370763,-1.567848 -6.938826,-2.473043 -9.529024,-2.80845 -13.048412,-1.689671 2.483761,1.264373 -12.157903,-1.052924 -0.788746,-0.124818 -2.047893,0.106454 -2.300047,-0.701635 -0.22177,-0.710746 1.095646,-0.936166 1.643278,-1.404189 l 27.271726,-1.755523 c -3.176254,-1.170072 -6.215973,-2.90779 -9.528123,-3.510077 -0.190287,-0.0346 -0.405148,-0.05484 -0.639703,-0.06335 z m -3.778902,34.925169 c -0.198789,-0.0158 -0.397067,0.04 -0.595676,0.0585 -0.382249,0.0347 -0.764636,0.0712 -1.147332,0.0998 -1.377553,0.10289 -1.334482,0.0892 -2.618097,0.13437 -2.58625,0.25381 -5.088706,1.05006 -7.616209,1.64514 -5.775094,1.35968 1.172583,-0.36045 -4.324266,1.01646 -3.299689,0.76117 -6.529129,1.79601 -9.867743,2.36309 -0.643438,0.10923 -1.284352,0.25786 -1.935271,0.28795 -0.864998,0.04 -1.731076,-0.0525 -2.596538,-0.0787 -0.851974,-0.1433 -1.710047,-0.25114 -2.556106,-0.43 -3.404843,-0.71982 -0.887952,-0.43119 -3.865156,-0.87248 -2.323112,-0.34434 -4.657531,-0.48399 -6.998071,-0.59413 -1.306383,-0.10396 -2.507698,-0.20647 -3.794179,-0.28315 -0.573898,2.11858 -0.719917,4.26307 -0.239888,6.37132 1.357809,5.9634 7.976657,6.22143 12.157903,6.31853 2.322847,0.0539 4.63624,-0.49481 6.90014,-1.05293 12.316402,-3.03638 15.736272,-5.55574 28.25733,-13.68999 0.48405,-0.31446 1.059462,-0.7412 1.663941,-1.21034 -0.212804,-0.0244 -0.337016,-0.0447 -0.824782,-0.0835 z"/>
    <path id="path491" style="fill:#ffb380;stroke:#000000;stroke-width:0.47546px;stroke-linecap:butt;stroke-linejoin:miter;stroke-opacity:1" d="m 184.83343,75.938844 c -8.96354,1.247884 -17.74065,4.243463 -25.16304,9.469636 -0.48777,0.343446 -5.652,4.187834 -4.92893,7.020165 0.78013,3.055862 5.38797,3.683473 7.88575,3.861376 6.77372,0.482423 13.25212,-0.08841 19.71301,-1.239137 0.18421,-1.011074 0.7146,-1.725212 1.96493,-1.463731 0.34668,-0.625282 0.99751,-1.015315 2.10957,-0.981903 -0.10117,-0.414915 -0.10098,-0.837899 -0.0189,-1.266967 -0.13778,-0.101603 -0.40902,-0.29877 -0.50494,-0.369536 l -0.003,0.0029 c -2.0074,-1.480999 -1.33051,-3.3608 0.26595,-3.380502 0.33946,-0.0044 0.72352,0.08703 1.12936,0.272587 -1.80321,-6.762463 -1.99669,-7.812134 -2.4501,-11.924868 z"/>
  </g>
  <g id="layer1" style="display:inline">
    <path id="path188" style="fill:#000000;stroke-width:0.226142" d="m 21.75115,95.101757 -2.637866,1.655698 c 0.611865,1.002165 0.898561,2.164413 1.166196,3.317155 0.313384,1.45397 0.561609,2.92573 0.740327,4.40656 0.196342,1.48702 0.05968,2.97826 -0.163519,4.44975 -0.149313,1.11483 -0.446531,2.19159 -0.770875,3.25765 -0.253831,0.90918 -0.504605,1.81431 -0.848142,2.68847 -0.277437,0.72484 -0.638503,1.40296 -1.008966,2.07418 -0.233467,0.446 -0.418702,0.93466 -0.691811,1.35432 l 2.78701,-1.34376 c 0.218949,-0.44778 0.435705,-0.89775 0.657669,-1.34375 0.363302,-0.6781 0.694054,-1.37615 0.966739,-2.10394 0.327687,-0.88482 0.564277,-1.79936 0.830173,-2.70767 0.314335,-1.07078 0.571114,-2.15852 0.698998,-3.27685 0.204354,-1.50052 0.3273,-3.0213 0.126682,-4.53229 -0.186912,-1.48982 -0.44812,-2.96948 -0.766382,-4.432476 -0.271245,-1.186731 -0.559623,-2.374607 -1.086233,-3.463047 z"/>
    <path style="fill:#000000;stroke-width:0.226142" id="path190" d="m 9.812118,101.11454 c 1.825803,-0.34998 3.353681,-1.598455 4.924096,-2.58604 0.726878,-0.550526 1.422979,-1.146298 2.125109,-1.733024 0.648879,-0.488341 1.266952,-1.021315 1.894878,-1.540842 0.904979,-0.567409 2.555042,-1.683636 -1.508294,0.9564 -0.118991,0.07727 0.245046,-0.140975 0.369992,-0.20615 0.237653,-0.123887 0.465548,-0.222384 0.708467,-0.331634 0.629006,-0.29523 1.298515,-0.44982 1.973723,-0.550917 0.616564,-0.08507 1.234384,-0.104756 1.850972,-0.02062 0.485885,0.09268 0.935391,0.296288 1.364487,0.554742 0.465843,0.283937 0.867137,0.676549 1.27175,1.052537 0.391424,0.367278 0.763394,0.757772 1.130411,1.153598 0.412409,0.431041 0.928697,0.719268 1.435059,0.996352 0.795053,0.421624 1.41303,0.509255 2.282732,0.441999 0.882863,-0.117014 1.694598,-0.531618 2.48709,-0.948153 1.764095,-0.966652 3.439843,-2.089956 5.006838,-3.390583 0.28874,-0.231095 0.582888,-0.453905 0.877796,-0.675453 0,0 -2.811471,1.209969 -2.811471,1.209969 v 0 c -0.276355,0.219226 -0.552425,0.438897 -0.825428,0.663101 -0.391116,0.316924 -0.783018,0.632715 -1.189566,0.926013 -0.135855,0.09807 -0.554603,0.372404 -0.41212,0.286333 0.562829,-0.339992 3.14833,-1.957673 1.676287,-1.04364 -0.769575,0.421754 -1.554133,0.842598 -2.404283,1.030249 -0.820566,0.09491 -1.408965,0.117943 -2.171041,-0.306207 -0.477762,-0.261537 -0.972388,-0.527606 -1.373089,-0.917674 -0.374271,-0.398945 -0.745372,-0.802572 -1.144282,-1.172542 -0.418439,-0.386149 -0.830347,-0.792412 -1.297604,-1.106365 -0.450344,-0.291422 -0.918618,-0.524262 -1.432258,-0.650527 -0.635254,-0.127601 -1.276378,-0.114043 -1.917539,-0.03845 -0.688619,0.07968 -1.379925,0.198609 -2.025716,0.483084 -0.242391,0.109028 -0.48889,0.207376 -0.72924,0.321716 -1.4019,0.666891 -2.699415,1.583264 -3.978401,2.493675 -0.621796,0.518765 -1.244006,1.036323 -1.880394,1.533728 -0.700986,0.573502 -1.376029,1.18755 -2.122378,1.691809 4.096214,-2.550399 2.196377,-1.265021 1.252468,-0.866317 -0.310053,0.130945 -0.632054,0.231039 -0.960182,0.289881 0,0 -2.448869,1.999872 -2.448869,1.999872 z"/>
    <path style="fill:#000000;stroke-width:0.226142" id="path194" d="m 29.714515,116.07145 c -0.171567,-0.7788 -0.227129,-1.58035 -0.269324,-2.37774 -0.08556,-0.72491 -0.102874,-1.45776 -0.183281,-2.18269 -0.06556,-0.45937 -0.112054,-0.92056 -0.131822,-1.38486 -0.01784,-0.39871 -0.09743,-0.79013 -0.131875,-1.18822 -0.03726,-0.43931 -0.116452,-0.87236 -0.15465,-1.31222 -0.09215,-0.36644 -0.116748,-0.74705 -0.19211,-1.11632 -0.08441,-0.41941 -0.162126,-0.84146 -0.267344,-1.25542 -0.1039,-0.43026 -0.194054,-0.86487 -0.308394,-1.2921 -0.111915,-0.43002 -0.15246,-0.87458 -0.235818,-1.31136 -0.09439,-0.36455 -0.21357,-0.71944 -0.320961,-1.0793 -0.0946,-0.27913 -0.247283,-0.52886 -0.336187,-0.80989 -0.06198,-0.27189 -0.150234,-0.53632 -0.252987,-0.792863 -0.122398,-0.224779 -0.235786,-0.455372 -0.373874,-0.669379 -0.152338,-0.217889 -0.244656,-0.46336 -0.330442,-0.71769 -0.529162,-1.059763 -0.05657,-0.171621 -2.677881,1.685492 -0.02561,0.0186 0.01165,0.0656 0.02088,0.0973 0.04166,0.14264 0.09475,0.2833 0.150026,0.42014 0.150164,0.29801 0.265196,0.61137 0.372382,0.93069 0.123998,0.38336 0.190563,0.78357 0.291046,1.17353 0.0794,0.36897 0.242884,0.70558 0.358137,1.06099 0.133891,0.34069 0.258855,0.68397 0.379356,1.03049 0.110367,0.33395 0.205934,0.67391 0.321727,1.00564 0.132987,0.3231 0.221073,0.66196 0.32568,0.99598 0.08394,0.33267 0.170889,0.66495 0.244363,1.00086 0.03663,0.29531 0.105656,0.58077 0.163273,0.87156 0.05619,0.31384 0.06508,0.63416 0.07181,0.95285 -0.0057,0.34352 -0.0013,0.67852 0.05805,1.01609 0.282059,1.42025 1.42128,-0.42195 2.819553,-1.38727 0.0038,-0.002 -0.05115,-0.26852 -0.05465,-0.28572 -0.05085,-0.26206 -0.104682,-0.53279 -0.06429,-0.79954 0.02154,-0.39943 0.12372,-0.76972 0.276032,-1.13031 0.234539,-0.47198 0.515486,-0.89598 0.90145,-1.23044 0.09039,-0.0689 0.178786,-0.14079 0.271173,-0.20644 0.107585,-0.0763 0.218003,-0.14804 0.328501,-0.21921 0.118678,-0.0765 0.477925,-0.30012 0.358974,-0.22409 -3.971356,2.53853 -2.33918,1.41697 -1.3216,0.96656 0.930643,-0.34418 1.884476,-0.26318 2.82004,-0.007 0.838937,0.22901 1.288078,0.72493 1.805463,1.439 0.264209,0.4274 0.557036,0.84209 0.759082,1.31101 0.106317,0.24675 0.190181,0.51163 0.276703,0.7667 0.254372,0.82845 0.398773,1.6842 0.478994,2.55129 0.02561,0.62921 0.05925,1.25459 0.121843,1.88076 0.01356,0.39286 0.0774,0.77384 0.14354,1.15877 0.07594,0.39684 0.263844,0.73674 0.44615,1.0832 0.183579,0.35946 0.465668,0.61813 0.774676,0.84222 0.29851,0.1928 0.647585,0.22883 0.971083,0.34693 0,0 2.536191,-1.87488 2.536191,-1.87488 v 0 c -0.310632,-0.1172 -0.634157,-0.16419 -0.945234,-0.27617 -0.281616,-0.17274 -0.537339,-0.39005 -0.700957,-0.70055 -0.16988,-0.31155 -0.326992,-0.62805 -0.390151,-0.98838 -0.06789,-0.37437 -0.113254,-0.74986 -0.148443,-1.12967 -0.07554,-0.61832 -0.104769,-1.23869 -0.153138,-1.85996 -0.101709,-0.8874 -0.268295,-1.7631 -0.520222,-2.6153 -0.06349,-0.19181 -0.20383,-0.62954 -0.283664,-0.81648 -0.207977,-0.48699 -0.531167,-0.90412 -0.799288,-1.35041 -0.529587,-0.73919 -1.050247,-1.36418 -1.915604,-1.61292 -0.964332,-0.28762 -1.953942,-0.40901 -2.938715,-0.14376 -1.393092,0.52086 -2.439474,1.34775 -3.801962,2.20015 -0.208562,0.13057 -0.499547,0.32926 -0.694582,0.48569 -0.09256,0.0741 -0.178785,0.1575 -0.268176,0.23616 -0.363151,0.39915 -0.666614,0.85861 -0.874066,1.3763 -0.13895,0.39662 -0.214363,0.81108 -0.246162,1.23443 -9.01e-4,0.29595 0.03352,0.58823 0.08949,0.87787 0.0033,0.0318 0.01113,0.0633 0.0099,0.0953 -9e-4,0.0245 -0.03634,0.0827 -0.01617,0.0717 3.672632,-1.99945 2.84749,-0.68653 2.645925,-1.63269 -0.05258,-0.32016 -0.027,-0.64486 -0.03974,-0.96864 -0.0113,-0.33832 -0.02931,-0.67768 -0.09599,-1.00937 -0.06007,-0.29208 -0.108281,-0.58591 -0.170733,-0.87717 -0.08069,-0.34226 -0.160439,-0.68528 -0.256197,-1.02278 -0.09961,-0.34027 -0.205842,-0.67581 -0.330431,-1.00635 -0.109394,-0.33332 -0.21183,-0.66934 -0.326179,-1.00077 -0.111793,-0.35073 -0.248419,-0.68938 -0.375533,-1.03366 -0.118886,-0.34369 -0.270024,-0.67525 -0.34841,-1.03447 -0.09651,-0.40143 -0.186495,-0.80434 -0.303067,-1.19988 -0.110263,-0.322388 -0.218332,-0.645311 -0.371663,-0.946744 -0.511854,-1.432705 0.278817,-0.947448 -2.835274,1.065764 0.117757,0.26142 0.208485,0.53734 0.368803,0.7745 0.125893,0.19731 0.23116,0.40831 0.344561,0.61398 0.103761,0.2482 0.175705,0.51063 0.244719,0.77243 0.09762,0.27504 0.243419,0.52465 0.33814,0.80162 0.115636,0.34139 0.222924,0.68584 0.312567,1.03653 0.08693,0.44187 0.130032,0.89336 0.248833,1.32752 0.104004,0.42935 0.206967,0.85887 0.306479,1.28933 0.09661,0.41106 0.175805,0.82616 0.251409,1.24229 0.06082,0.36165 0.103708,0.72674 0.183859,1.08448 0.04583,0.43872 0.125997,0.87249 0.151712,1.31354 0.04039,0.39189 0.110836,0.77993 0.127197,1.17416 0.03015,0.46743 0.08467,0.93071 0.161291,1.39192 0.08199,0.71486 0.12106,1.4356 0.201124,2.15095 0.05224,0.81186 0.134134,1.61946 0.221387,2.42748 0,0 2.703728,-1.54967 2.703728,-1.54967 z"/>
    <path style="fill:#000000;stroke-width:0.226142" id="path196" d="m 44.73708,103.55536 c -1.349216,0.4576 -2.570303,1.44827 -3.70822,2.25834 -0.159518,0.11349 -0.281495,0.28297 -0.397989,0.44741 -0.325028,0.45877 -0.426149,0.793 -0.643449,1.32171 -0.436274,1.24518 -0.549102,2.59105 -0.419973,3.913 0.0233,0.23849 0.06784,0.47393 0.101744,0.71088 0.289155,1.55068 1.057655,2.52527 2.117115,3.5414 0.669213,0.60299 1.474367,1.24381 2.392557,1.19832 0.153016,-0.007 0.301986,-0.0563 0.45298,-0.0843 1.432899,-0.56905 0.604543,-0.21056 3.341853,-1.99711 0.165968,-0.10828 0.493399,-0.456 0.624689,-0.60992 0.272382,-0.31934 0.297338,-0.38483 0.528466,-0.74418 0.307703,-0.57818 0.56994,-1.18985 0.712738,-1.843 0.06323,-0.28925 0.125876,-0.76743 0.167951,-1.0632 0.102543,-1.02973 -0.08259,-2.03604 -0.362095,-3.01368 -0.234103,-0.76682 -0.518281,-1.51557 -0.977872,-2.15415 -0.466563,-0.54663 -0.98588,-1.04435 -1.560025,-1.45204 -0.406955,-0.28 -0.85188,-0.48244 -1.265144,-0.74986 -0.03423,-0.0269 -0.06845,-0.0539 -0.102683,-0.0808 0,0 -2.577551,1.79146 -2.577551,1.79146 v 0 c 0.04298,0.0321 0.08594,0.0643 0.128918,0.0966 0.419917,0.25959 0.858761,0.47341 1.279945,0.73029 0.567926,0.35242 1.076345,0.81834 1.510814,1.35012 0.446769,0.60044 0.727171,1.30089 0.946764,2.03344 0.265593,0.93448 0.445797,1.89045 0.312384,2.8734 -0.149834,0.98884 -0.407403,1.94411 -0.951001,2.76893 -0.262086,0.35911 -0.524898,0.69505 -0.859079,0.97873 -0.583087,0.49497 -3.174191,2.10586 1.857818,-1.09483 0.125319,-0.0797 -0.261377,0.13726 -0.392064,0.206 -0.136412,0.0509 -0.267784,0.12222 -0.409213,0.15268 -0.868986,0.187 -1.676556,-0.43236 -2.319869,-0.97865 -1.054131,-0.98107 -1.717512,-1.83113 -2.012724,-3.34868 -0.227334,-1.58024 -0.198303,-2.94506 0.382001,-4.44272 0.273417,-0.56856 0.32224,-0.76284 0.717267,-1.23344 0.127597,-0.15212 0.59399,-0.49873 0.422548,-0.41214 -0.729597,0.36853 -1.412291,0.83889 -2.114229,1.26662 -0.120903,0.0737 0.244891,-0.14153 0.370851,-0.20427 0.0903,-0.045 0.184839,-0.0791 0.277257,-0.11869 0,0 2.42652,-2.01352 2.42652,-2.01352 z"/>
    <path style="fill:#000000;stroke-width:0.226142" id="path198" d="m 46.840571,110.16609 c 0.163552,0.88216 0.25767,1.77567 0.423054,2.65865 0.168559,0.97033 0.527455,1.86475 1.027612,2.68179 0.439538,0.59521 0.95496,1.16097 1.59345,1.49138 0.557174,0.23988 1.102621,0.13893 1.660711,-0.0256 0.350585,-0.1029 0.678537,-0.26936 0.99838,-0.45307 0,0 2.351349,-2.07755 2.351349,-2.07755 v 0 c -0.303608,0.20888 -0.617455,0.39456 -0.958822,0.52118 -0.510315,0.17013 -1.006201,0.3597 -1.5434,0.20059 -0.08196,-0.0277 -0.16809,-0.0436 -0.245867,-0.083 -0.512341,-0.26018 -0.904384,-0.7832 -1.274056,-1.22717 -0.488047,-0.77579 -0.842258,-1.61943 -0.994202,-2.55304 -0.154963,-0.89059 -0.262222,-1.788 -0.332768,-2.6913 0,0 -2.705441,1.55726 -2.705441,1.55726 z"/>
    <path style="fill:#000000;stroke-width:0.226142" id="path200" d="m 51.789839,96.852832 c 0.143627,1.401036 0.23786,2.809243 0.335863,4.215198 0.101691,1.9105 0.239054,3.81955 0.442513,5.72046 0.241821,1.87864 0.732401,3.70294 1.211799,5.52185 0.264233,0.91323 0.542511,1.83885 1.00949,2.6577 0.234821,0.41174 0.34558,0.5271 0.628098,0.88844 0.540274,0.63641 1.18455,1.10809 1.942384,1.3642 0.741604,0.16865 1.496519,0.0312 2.24131,-0.0316 0.371205,-0.0349 0.656989,0.12945 0.917088,0.39707 0.139246,0.1445 0.06473,0.0739 0.224607,0.21036 0,0 2.573938,-1.80386 2.573938,-1.80386 v 0 c -0.138359,-0.0709 -0.06963,-0.0219 -0.198471,-0.15918 -0.314259,-0.31453 -0.64451,-0.58309 -1.091781,-0.60266 -0.727288,0.0774 -1.458443,0.23124 -2.190062,0.12909 -0.76301,-0.16884 -1.322058,-0.59483 -1.878683,-1.17762 -0.290701,-0.34892 -0.370461,-0.4183 -0.613548,-0.82176 -0.472692,-0.78451 -0.768267,-1.67182 -1.035528,-2.55805 -0.506257,-1.79439 -0.972117,-3.60648 -1.189411,-5.47419 -0.212409,-1.89277 -0.367333,-3.793 -0.449899,-5.698089 -0.07846,-1.441082 -0.170071,-2.882665 -0.175979,-4.326849 0,0 -2.703728,1.549645 -2.703728,1.549645 z"/>
    <path style="fill:#000000;stroke-width:0.226142" id="path202" d="m 46.76733,104.32529 c 0.653576,-0.23185 1.361734,-0.19775 2.04172,-0.20063 0.632335,8.9e-4 1.264665,0.006 1.896954,0.013 0.49931,0.0301 0.995671,0.0979 1.494849,0.13466 0.573767,0.0403 1.147473,-0.0357 1.719506,-0.078 0.601714,-0.0167 1.198632,-0.0754 1.792431,-0.18146 0.464701,-0.0687 0.915833,-0.19937 1.350882,-0.38829 0.431897,-0.1614 0.83759,-0.3852 1.239063,-0.61979 0.06389,-0.037 0.127771,-0.0741 0.191653,-0.11088 0,0 2.36296,-2.08052 2.36296,-2.08052 v 0 c -0.06285,0.0397 -0.125702,0.0795 -0.188553,0.11924 -0.402542,0.22309 -0.783073,0.49975 -1.218853,0.64197 -0.430066,0.19567 -0.859805,0.39402 -1.327636,0.45745 -0.585806,0.12017 -1.17371,0.21503 -1.771777,0.21063 -0.563378,0.0349 -1.126376,0.11738 -1.690526,0.10382 -0.50447,-0.0266 -1.00603,-0.081 -1.507416,-0.14673 -0.640558,0.004 -1.28111,-8.9e-4 -1.921669,0.002 -0.680931,0.006 -1.369257,-0.0149 -2.045245,0.0732 0,0 -2.418343,2.05001 -2.418343,2.05001 z"/>
    <path style="fill:#000000;stroke-width:0.226142" id="path204" d="m 65.898417,103.18319 c 0.404206,-0.77955 0.795957,-1.56701 1.197699,-2.34816 0.302801,-0.62854 0.537416,-1.283376 0.690325,-1.972407 0.0422,-0.373165 0.176279,-0.732623 0.209706,-1.107144 0.01634,-0.183695 0.01008,-0.369209 0.02281,-0.553312 0.03994,-0.442743 0.07128,-0.878966 0.01339,-1.320093 -0.007,-0.17255 -0.07208,-0.305445 -0.154685,-0.446699 0,0 -2.641712,1.69441 -2.641712,1.69441 v 0 c 0.06706,0.0912 0.08525,0.188375 0.0958,0.305817 0.052,0.414102 -0.0035,0.830841 -0.02128,1.246057 -0.03324,0.542874 -0.130274,1.07165 -0.245081,1.600961 -0.16376,0.65707 -0.410691,1.2836 -0.699548,1.88678 -0.392521,0.80148 -0.788409,1.60199 -1.255778,2.35562 0,0 2.788323,-1.34183 2.788323,-1.34183 z"/>
    <path style="fill:#000000;stroke-width:0.226142" id="path206" d="m 73.042534,101.36252 c -0.531764,0.23215 -1.051749,0.49871 -1.548945,0.80952 -3.047288,1.90498 -2.08791,1.08931 -3.348634,2.20987 -0.568878,0.60989 -1.016396,1.35263 -1.14339,2.22588 -0.02361,0.16233 -0.02438,0.32764 -0.03656,0.49146 0.144514,1.28725 0.827592,1.89341 1.727409,2.62445 0.904045,0.66767 1.883007,1.20196 2.906943,1.61018 0.992735,0.34462 1.943516,0.80614 2.838654,1.38558 0.479882,0.37703 1.114734,0.81141 1.255932,1.49638 0.01965,0.0953 0.0096,0.19502 0.01443,0.29253 -0.08031,0.38247 -0.3584,0.61496 -0.651901,0.81547 -0.137264,0.0938 -0.56608,0.34322 -0.428137,0.25063 2.044159,-1.37215 2.801494,-1.65455 1.423266,-1.06494 -1.235458,0.51376 -2.51199,0.74096 -3.823179,0.84594 -1.1715,0.0994 -2.341289,0.0201 -3.479136,-0.29861 -0.474892,-0.15361 -0.920684,-0.36542 -1.264577,-0.76002 -0.09665,-0.14711 -0.04856,-0.0706 -0.143818,-0.23019 0,0 -2.638482,1.68208 -2.638482,1.68208 v 0 c 0.111515,0.1883 0.05197,0.0938 0.179384,0.28301 0.40979,0.4513 0.853938,0.69382 1.418576,0.86555 1.168717,0.32863 2.372522,0.43197 3.577763,0.34709 0.493881,-0.031 0.842837,-0.0444 1.333981,-0.10884 0.862556,-0.1133 1.708543,-0.36979 2.53339,-0.65974 1.666125,-0.61384 0.609918,-0.18091 3.646911,-2.06527 0.386097,-0.23959 0.784437,-0.56671 0.938112,-1.04556 0.03914,-0.12203 0.03074,-0.25624 0.04611,-0.38438 -0.01968,-0.12352 -0.02521,-0.25063 -0.05903,-0.3704 -0.20954,-0.74247 -0.841789,-1.22934 -1.396773,-1.64573 -0.909177,-0.58622 -1.857226,-1.1014 -2.871611,-1.4361 -1.008111,-0.38238 -1.972498,-0.88433 -2.865473,-1.5263 -0.75238,-0.60424 -1.505233,-1.24607 -1.548683,-2.34835 0.01839,-0.14859 0.02625,-0.29928 0.0552,-0.4459 0.161327,-0.81675 0.638129,-1.49094 1.209618,-2.02322 1.059767,-0.8147 0.537773,-0.39364 -1.711922,1.01867 -0.142688,0.0895 0.283329,-0.18313 0.428091,-0.26866 0.210601,-0.12445 0.536875,-0.29648 0.762513,-0.40421 0.08599,-0.041 0.174008,-0.0769 0.261012,-0.11515 0,0 2.40298,-2.05261 2.40298,-2.05261 z"/>
    <path style="fill:#000000;stroke-width:0.17333" id="path208" d="m 86.898962,115.61622 c 0.478455,-0.0557 0.917517,-0.26859 1.345068,-0.50594 0.884473,-0.6783 1.933066,-1.15544 2.783805,-1.92176 0.11694,-0.10531 0.302101,-0.30602 0.409631,-0.41978 0.497683,-0.54925 0.991226,-1.10196 1.440827,-1.70288 0.457467,-0.64445 0.904088,-1.29981 1.313008,-1.98539 0.481853,-0.79715 0.8364,-1.6745 1.242646,-2.52096 0.670757,-1.34886 1.395757,-2.65928 2.009449,-4.04376 0.616319,-1.33666 0.973699,-2.788333 1.28373,-4.247598 0.197187,-1.00484 0.375249,-2.016126 0.492307,-3.037422 0.0589,-0.484032 0.07869,-0.9715 0.08617,-1.459433 0.0037,-1.524441 -0.313238,-0.526826 -2.131293,0.644844 -0.08983,0.731174 -0.05012,1.469815 -0.03237,2.20463 0.05878,1.112531 0.131665,2.224802 0.22556,3.334231 0.10762,1.153488 0.304096,2.291368 0.519526,3.423918 0.178671,1.02819 0.473235,2.01973 0.784505,3.00333 0.144392,0.4391 0.298814,0.89709 0.590718,1.24128 0.162804,0.19194 0.242367,0.23111 0.437088,0.37153 0.486053,0.29475 1.035423,0.32069 1.573463,0.34647 0.20114,-0.004 0.35752,10e-4 0.55648,-0.0316 0.94557,-0.15676 2.38753,-1.35488 2.8467,-1.65485 0.38132,-0.30934 0.70859,-0.68496 1.0447,-1.05211 0.41996,-0.47359 0.72815,-1.04572 1.0271,-1.6203 0.38125,-0.65784 0.60245,-1.40042 0.83171,-2.13719 0.22169,-0.84943 0.47963,-1.68497 0.69847,-2.535259 0.21512,-0.804987 0.37026,-1.628361 0.5318,-2.448745 0.14929,-0.746981 0.35176,-1.474069 0.61022,-2.180801 0.23345,-0.641277 0.62884,-1.159188 1.09472,-1.595485 0.70877,-0.447145 1.80872,-1.306274 -1.36449,0.918973 -0.0463,0.0325 0.10378,-0.03733 0.1569,-0.05052 0.12502,-0.0312 0.15913,-0.02582 0.28284,-0.02897 0.21483,0.02582 0.43584,0.136888 0.49194,0.393002 -0.007,0.02155 -0.009,0.04588 -0.0206,0.06445 -0.0129,0.02062 -0.0367,0.02972 -0.0507,0.04941 -0.0627,0.0886 -0.0622,0.21644 -0.1019,0.317128 -0.0633,0.190808 -0.13507,0.375004 -0.2229,0.553721 -0.11021,0.193111 -0.2546,0.354852 -0.39538,0.518598 -0.026,0.0299 -0.0498,0.06259 -0.0782,0.08971 -0.0606,0.05795 -0.36411,0.25851 -0.16934,0.129273 3.25132,-2.155985 2.39672,-1.589412 1.71457,-1.144904 -0.87571,0.491238 -1.90603,0.851959 -2.51167,1.73906 -0.18399,0.242871 -0.27263,0.547629 -0.40918,0.823152 -0.16414,0.359049 -0.27914,0.744975 -0.36237,1.137717 -0.12596,0.527773 -0.16496,1.07204 -0.19044,1.61573 -0.0203,0.6791 -0.0146,1.35903 -0.0143,2.03847 -0.002,0.86764 0.0814,1.73202 0.17092,2.59253 0.0682,0.99269 0.21914,1.97262 0.34501,2.95687 0.11119,0.73089 0.16496,1.47223 0.28569,2.20139 0.0805,0.48641 0.11181,0.5733 0.22928,1.05022 0.25875,1.10711 0.72938,2.11796 1.29194,3.0601 0.51555,0.86947 1.18511,1.54372 1.92407,2.15535 0.44581,0.35978 0.93008,0.64646 1.4223,0.91303 0,0 1.85641,-1.40191 1.85641,-1.40191 v 0 c -0.49414,-0.23685 -0.97172,-0.50886 -1.41324,-0.85851 -0.71934,-0.58511 -1.39279,-1.23456 -1.89759,-2.07192 -0.55411,-0.91929 -1.00899,-1.90394 -1.25173,-2.99145 -0.25285,-1.05659 -0.377,-2.13716 -0.50583,-3.22092 -0.12078,-0.98454 -0.23772,-1.96952 -0.32825,-2.95839 -0.0795,-0.85751 -0.14601,-1.71935 -0.13366,-2.58247 0.001,-0.67772 0.001,-1.355779 0.0345,-2.032699 0.0329,-0.5329 0.0873,-1.065001 0.22561,-1.577859 0.0986,-0.377363 0.22168,-0.745161 0.3937,-1.088088 0.12315,-0.272366 0.24119,-0.550396 0.44141,-0.76301 0.0596,-0.05665 0.25214,-0.205797 0.18461,-0.161963 -3.264,2.115941 -2.30906,1.471079 -1.58443,1.051145 0.89463,-0.375265 1.79405,-0.904691 2.44622,-1.705313 0.14289,-0.179979 0.28229,-0.364119 0.37253,-0.586429 0.0799,-0.191087 0.15206,-0.386074 0.21472,-0.585277 0.0532,-0.200523 0.15609,-0.371364 0.0967,-0.591426 -0.12279,-0.325672 -0.33931,-0.542985 -0.64291,-0.638417 -1.14754,-0.208472 -2.1087,0.9215 -3.01734,1.636571 -0.44657,0.481822 -0.8216,1.032738 -1.03796,1.696081 -0.24896,0.720959 -0.44996,1.460213 -0.59274,2.2183 -0.15597,0.816224 -0.31227,1.633005 -0.53333,2.430544 -0.21782,0.84539 -0.4642,1.68044 -0.70119,2.51907 -0.23715,0.72556 -0.48432,1.44764 -0.86137,2.09751 -0.30882,0.5645 -0.63893,1.11649 -1.07135,1.57038 -0.33067,0.36544 -0.67481,0.71923 -1.0688,0.99562 3.96604,-2.58632 1.67084,-0.96091 1.072,-0.7983 -0.19332,0.0524 -0.33976,0.0514 -0.53758,0.0643 -0.50777,-0.013 -1.02949,-0.0167 -1.50543,-0.24419 -0.58305,-0.35795 -0.73785,-0.75786 -0.97942,-1.44353 -0.32711,-0.96268 -0.622077,-1.93936 -0.795049,-2.9555 -0.213379,-1.1248 -0.416025,-2.254778 -0.499329,-3.403602 -0.09715,-1.103931 -0.185594,-2.209646 -0.212746,-3.319167 -0.005,-0.730562 -0.03041,-1.476317 0.137733,-2.188657 -2.487764,1.356385 -1.971487,0.278309 -1.971104,1.657503 -0.0012,0.470882 -0.01513,0.941931 -0.05657,1.410677 -0.09901,1.000921 -0.252282,1.994412 -0.441697,2.978208 -0.295244,1.443148 -0.672797,2.864078 -1.281064,4.181888 -0.628034,1.38883 -1.357899,2.71059 -2.052361,4.05706 -0.414846,0.85075 -0.803542,1.71945 -1.294321,2.51892 -0.416941,0.67244 -0.851794,1.33122 -1.32068,1.95827 -0.463289,0.59014 -0.956474,1.14923 -1.470196,1.68272 -0.207353,0.20337 -0.211162,0.21488 -0.427064,0.39685 -0.663319,0.55905 -2.117944,1.47336 1.071549,-0.61995 -0.395183,0.23545 -0.811283,0.49645 -1.262758,0.54016 0,0 -1.838469,1.56495 -1.838469,1.56495 z"/>
    <path style="fill:#000000;stroke-width:0.17333" id="path210" d="m 118.32577,105.6686 c -0.28644,1.08259 -0.58833,2.15917 -0.85616,3.24807 -0.30284,1.27953 -0.50474,2.58263 -0.57607,3.90474 -0.0355,1.06751 0.1639,2.1102 0.52244,3.09121 0.35603,0.80055 0.78463,1.16398 1.47291,1.55374 0.77997,0.38306 1.27134,0.31941 2.03868,-0.0405 0.74039,-0.48207 1.49111,-0.94418 2.22116,-1.44623 0.10618,-0.073 0.19109,-0.18017 0.28257,-0.27554 0.43278,-0.4509 0.75412,-0.90148 1.07755,-1.45607 0.58953,-1.09963 1.0062,-2.31231 1.3375,-3.54027 0.3317,-1.20837 0.45187,-2.47115 0.55982,-3.72569 10e-4,-0.0282 0.0288,-0.56933 10e-4,-0.66552 -0.24802,-0.87102 -1.47791,0.77787 -2.09587,1.36463 -0.0721,0.0685 1.4e-4,0.21375 10e-4,0.3206 0.001,0.13708 0.004,0.274 0.006,0.41102 0.0394,0.92137 0.11817,1.84074 0.29002,2.74353 0.13848,0.72741 0.21817,0.9772 0.40781,1.69599 0.47733,1.75615 1.20087,3.45661 1.61331,5.23293 0.0922,0.3972 0.15362,0.80283 0.23044,1.20425 0.0328,0.46646 0.0879,0.93159 0.0985,1.39938 0.0297,1.31189 -0.0835,2.92383 -0.35394,4.20272 -0.24034,1.1365 -0.4057,1.42658 -0.82105,2.47877 -0.48535,0.90013 -0.58902,1.22122 -1.25363,1.95741 -0.2437,0.26993 -0.69098,0.36423 -0.79038,0.73424 -0.0892,0.3321 1.03613,-0.46483 0.75263,-0.59373 -0.37235,-0.16921 -0.75658,0.30782 -1.14641,0.4147 -0.41225,0.11292 -0.83602,0.16214 -1.25402,0.24329 -1.88963,0.23264 -3.79202,5.6e-4 -5.65162,-0.39948 -0.96631,-0.2079 -1.67003,-0.42393 -2.61849,-0.69358 -0.86762,-0.29577 -1.76898,-0.53682 -2.58292,-1.00585 -0.13885,-0.0799 -0.53935,-0.31053 -0.5866,-0.57177 -0.0146,-0.081 0.0522,-0.15435 0.0783,-0.23147 -0.10548,0.0167 1.13663,-0.81733 0.86729,-0.58784 -0.34778,0.29635 -0.93839,0.34226 -1.09605,0.80284 -0.12843,0.3752 0.65213,-0.31379 0.98033,-0.46476 0.2234,-0.10271 2.19884,-0.9826 2.37631,-1.06173 2.819,-1.23612 5.59025,-2.60021 8.31459,-4.08446 0.45538,-0.26224 0.91478,-0.51563 1.36614,-0.78671 0.43473,-0.26109 0.86717,-0.52759 1.29171,-0.80952 1.7481,-1.16093 2.67114,-1.69474 4.08432,-2.96101 0.84743,-0.75935 1.39645,-1.36589 2.18324,-2.19113 0.87433,-1.04074 1.6778,-2.17255 2.25258,-3.46309 0.29124,-0.65395 0.60358,-1.62203 0.77694,-2.33814 0.0779,-0.32159 0.1247,-0.65186 0.18703,-0.9778 0.10827,-0.99633 0.0889,-0.52487 0.0788,-1.41309 0,0 -1.94379,1.13605 -1.94379,1.13605 v 0 c 0.0418,0.82107 0.0428,0.38182 -0.0242,1.31751 -0.15302,0.90005 -0.15809,1.11834 -0.45834,2.02041 -0.57926,1.74035 -1.54058,3.2449 -2.68367,4.56345 -0.85599,0.90025 -1.22949,1.33116 -2.16967,2.15643 -0.39196,0.34406 -0.83394,0.61418 -1.20763,0.98361 -0.11886,0.11738 0.56617,-0.31121 0.4322,-0.21706 -0.78705,0.55315 -1.84745,1.14485 -2.66731,1.62131 -2.70038,1.48313 -5.45164,2.83814 -8.25453,4.05236 -4.65422,2.03875 1.99154,-0.86949 -2.32102,1.0088 -0.314,0.1367 -0.63944,0.24445 -0.94049,0.41475 -0.87035,0.49236 -1.7184,1.03439 -2.56861,1.57034 -0.19681,0.12407 -0.40015,0.24281 -0.57131,0.40894 -0.12356,0.11998 -0.2,0.2912 -0.3,0.4368 0.006,0.13261 -0.0267,0.27567 0.0192,0.39779 0.1815,0.48292 1.07256,0.78002 1.43338,0.9163 0.72156,0.27249 1.27596,0.41811 2.02353,0.6379 2.7179,0.74306 5.49356,1.43237 8.30713,1.17315 0.68215,-0.112 1.76002,-0.22574 2.40608,-0.57359 1.21623,-0.65484 2.5529,-1.35828 3.51341,-2.49717 0.6336,-0.75127 0.74638,-1.10263 1.20412,-2.00474 0.39438,-1.06019 0.56297,-1.38428 0.78894,-2.52384 0.17129,-0.86386 0.2443,-1.86779 0.28387,-2.74828 0.0224,-0.49774 0.0424,-0.9963 0.0358,-1.49461 -0.006,-0.48383 -0.0501,-0.96608 -0.0751,-1.44913 -0.0735,-0.41276 -0.12648,-0.83095 -0.22056,-1.23829 -0.0855,-0.37025 -0.2097,-0.72755 -0.31725,-1.0903 -0.41222,-1.39025 -0.86285,-2.766 -1.24248,-4.16841 -0.17078,-0.68222 -0.26222,-0.99008 -0.3799,-1.68167 -0.15401,-0.90501 -0.20967,-1.8292 -0.19001,-2.74987 0.006,-0.13744 0.009,-0.27533 0.019,-0.41254 0.008,-0.10122 0.11856,-0.34073 0.0357,-0.30247 -0.66968,0.3092 -1.24564,0.8434 -1.90976,1.16773 -0.0587,0.0286 0.009,-0.2279 -0.0525,-0.20942 -0.16934,0.0507 0.40795,0.64849 0.0293,0.59652 -0.0662,1.23582 -0.20114,2.4693 -0.53993,3.65175 -0.35022,1.21699 -0.76597,2.42214 -1.39923,3.48917 -0.25577,0.39363 -0.51631,0.7636 -0.82903,1.10192 -0.57798,0.62533 -2.00917,1.52977 1.01439,-0.49984 -0.70945,0.40395 -1.15193,0.5481 -1.92126,0.21921 -0.635,-0.34244 -1.05763,-0.66828 -1.39771,-1.3944 -0.36499,-0.9362 -0.54667,-1.93962 -0.50878,-2.96714 0.0696,-1.30414 0.27014,-2.59093 0.58398,-3.84856 0.28914,-1.10621 0.57074,-2.21949 0.96224,-3.28584 0,0 -2.06605,1.09579 -2.06605,1.09579 z"/>
    <path style="fill:#000000;stroke-width:0.192426" id="path212" d="m 160.1333,87.409427 c -1.3727,0.144906 -2.70224,0.589922 -4.01517,1.038728 -2.33796,0.835006 -4.44292,2.243292 -6.5329,3.654605 -0.36345,0.24542 -0.71832,0.508675 -1.056,0.796447 -0.35124,0.299346 -0.67163,0.641402 -1.00745,0.962103 -1.63268,1.920863 -2.97617,4.182371 -3.72556,6.71155 -0.13393,0.45197 -0.22438,0.91858 -0.33657,1.3779 -0.34735,1.95478 -0.26716,3.86147 0.25234,5.76933 0.33408,1.22692 0.50571,1.48222 1.02079,2.61253 0.89488,1.67719 2.14223,3.06431 3.61915,4.10425 0.97104,0.68372 1.31709,0.79666 2.36593,1.30218 2.21357,0.9304 4.58132,1.23462 6.93402,1.03715 0.46804,-0.0393 0.93244,-0.12112 1.39865,-0.18168 1.70917,-0.3038 3.33373,-0.99883 4.80783,-2.0075 3.01981,-2.06642 2.12266,-1.24765 3.73332,-2.90244 0.54403,-0.73016 0.89127,-1.13758 1.32857,-1.94913 0.55016,-1.02098 0.94975,-2.16801 1.23003,-3.3147 0.0941,-0.38459 0.16043,-0.7769 0.24054,-1.16537 0.24206,-1.60948 0.27828,-3.25692 0.0887,-4.87659 -0.1241,-1.060247 -0.22574,-1.392543 -0.456,-2.429611 -0.391,-1.571499 -0.9386,-3.090707 -1.67871,-4.498295 -0.46318,-0.881014 -0.6965,-1.208064 -1.22199,-2.029611 -0.88604,-1.267618 -1.87578,-2.464577 -3.05688,-3.396263 -0.20931,-0.165095 -0.42999,-0.311526 -0.64499,-0.467312 -0.96676,-0.675699 -2.00793,-1.194986 -3.12822,-1.440048 -0.45456,-0.08613 -0.91061,-0.06819 -1.35904,0.0415 0,0 -2.02201,1.739415 -2.02201,1.739415 v 0 c 0.43312,-0.168684 0.88148,-0.237233 1.34066,-0.178553 1.12687,0.156794 2.17334,0.647077 3.14786,1.29034 0.21268,0.149394 0.43053,0.289791 0.63802,0.447954 1.18004,0.89952 2.17708,2.06097 3.08336,3.285833 0.50524,0.766099 0.79076,1.15665 1.22298,1.987755 0.72292,1.390137 1.23774,2.908518 1.64406,4.446028 0.0862,0.397777 0.18665,0.792004 0.25871,1.193278 0.355,1.97885 0.38098,4.0262 0.0482,6.00978 -0.0824,0.38192 -0.1509,0.76796 -0.24748,1.14575 -0.49172,1.92461 -1.34413,3.69079 -2.59348,5.13312 -0.27807,0.2762 -1.03052,0.47537 -0.83421,0.82857 0.19519,0.35123 1.10478,-0.90788 1.01276,-0.50732 -0.10141,0.44166 -0.69342,0.48242 -1.05536,0.69282 -1.17461,0.68277 -2.43231,1.16927 -3.73609,1.4276 -0.46547,0.0685 -0.92875,0.15927 -1.39645,0.20548 -2.32206,0.22907 -4.65565,-0.0709 -6.84718,-0.96957 -1.03942,-0.48733 -1.37714,-0.59214 -2.33995,-1.25769 -1.45753,-1.00752 -2.668,-2.36424 -3.549,-4.00807 -0.50054,-1.08434 -0.68791,-1.37051 -1.00811,-2.55143 -0.50164,-1.85014 -0.55133,-3.77437 -0.19039,-5.66128 0.11112,-0.44906 0.20124,-0.905362 0.33357,-1.34722 0.58833,-1.964622 1.55512,-3.82629 2.75613,-5.40151 0.318,-0.417088 0.67481,-0.79519 1.01221,-1.192763 0.34396,-0.314644 0.67472,-0.648244 1.03186,-0.943956 0.33634,-0.278463 0.7522,-0.443266 1.04602,-0.776483 0.21289,-0.241407 -1.07725,0.619239 -0.79585,0.492816 0.39629,-0.178104 0.75657,-0.443939 1.14247,-0.648558 1.10754,-0.58723 1.11973,-0.557307 2.22775,-0.992093 1.24027,-0.424222 2.4958,-0.833818 3.79411,-0.955217 0,0 2.07411,-1.684459 2.07411,-1.684459 z"/>
    <path style="fill:#000000;stroke-width:0.16385" id="path214" d="m 158.43729,110.88488 c -0.49428,1.13301 -0.83957,2.33026 -1.1976,3.51671 -0.3886,1.3635 -0.73451,2.77999 -0.66925,4.21755 0.0122,0.25628 0.0516,0.51027 0.0774,0.76542 0.16726,0.88365 0.39851,1.8081 0.98376,2.49808 0.35214,0.41516 0.57314,0.51702 1.01463,0.81212 1.04927,0.55717 2.07269,0.62768 3.21375,0.38667 0.21324,-0.045 0.42211,-0.1107 0.63318,-0.16605 1.6289,-0.60083 3.16001,-1.52508 4.54671,-2.60503 0.19535,-0.17645 0.39853,-0.34997 0.55187,-0.57077 0.0932,-0.1341 0.15874,-0.28366 0.25405,-0.41668 0.0283,-0.0258 0.0518,-0.0594 0.0852,-0.0776 0.0294,-0.0167 0.12588,-0.0403 0.0974,-0.0223 -0.61591,0.38761 -1.24371,0.7537 -1.86373,1.13391 -0.0257,0.0149 0.0824,-0.0522 0.1917,-0.0375 0.10397,0.0202 0.0271,0.0773 -0.0271,0.10234 0,0 2.06088,-0.97744 2.06088,-0.97744 v 0 c 0.0273,-0.18949 -0.0139,-0.36167 -0.17247,-0.47369 -0.0256,-0.0111 -0.1636,-0.0698 -0.184,-0.0748 -0.84707,-0.19874 -1.7464,0.64356 -2.24326,1.37397 -0.2058,0.35073 -0.45625,0.65114 -0.77996,0.88974 -0.58576,0.44351 -1.9233,1.27464 0.77957,-0.39242 0.15752,-0.0971 -0.31881,0.18766 -0.48175,0.27431 -0.5263,0.27987 -0.58084,0.28593 -1.14222,0.51808 -0.20835,0.0615 -0.4144,0.13243 -0.62508,0.18425 -1.09744,0.26991 -2.08607,0.2487 -3.11861,-0.2599 -0.41456,-0.26678 -0.63196,-0.36336 -0.9629,-0.74383 -0.56758,-0.65253 -0.80191,-1.53404 -0.95864,-2.38013 -0.025,-0.24614 -0.0636,-0.49114 -0.0749,-0.73842 -0.0647,-1.41688 0.28851,-2.80959 0.68232,-4.14919 0.38353,-1.21541 0.76274,-2.44521 1.36746,-3.56244 0,0 -2.03827,0.97476 -2.03827,0.97476 z"/>
    <path style="fill:#000000;stroke-width:0.16385" id="path216" d="m 170.90781,105.30629 c -0.59102,0.87096 -1.17299,1.76272 -1.6202,2.72794 -0.12918,0.2785 -0.23758,0.56706 -0.35638,0.85059 -0.36532,1.22133 -0.73095,2.50376 -0.65179,3.80266 0.0416,0.68193 0.12657,0.80296 0.33661,1.41835 0.10154,0.1731 0.18456,0.35999 0.3044,0.51948 0.37261,0.49592 0.89158,0.72325 1.47997,0.77056 0.58502,0.047 0.7879,-0.0503 1.37251,-0.18388 0.26067,-0.0983 0.52691,-0.18147 0.78202,-0.29484 0.2715,-0.12073 0.54031,-0.25114 0.79555,-0.40655 1.71308,-1.04302 2.25871,-1.30922 3.49419,-2.40012 0.70725,-0.6245 1.03611,-0.98695 1.69712,-1.66472 1.15993,-1.32398 2.28863,-2.70908 3.15907,-4.26931 0.11214,-0.20104 0.21002,-0.41059 0.31503,-0.61585 0.0217,-0.0539 0.27199,-0.58779 0.24617,-0.75497 -0.0104,-0.0737 -0.0601,-0.20959 -0.12552,-0.18091 -0.74549,0.32857 -1.45203,0.75183 -2.14897,1.18332 -0.0986,0.0611 -0.14431,0.18718 -0.21632,0.28102 -0.0972,0.12686 -0.19422,0.25409 -0.29132,0.38113 -0.83932,1.14078 -1.63714,2.34225 -2.22128,3.6547 -0.14013,0.31479 -0.25293,0.64234 -0.37938,0.96352 -0.37474,1.10848 -0.73723,2.29824 -0.58579,3.49392 0.0269,0.21199 0.065,0.42655 0.14465,0.62312 0.0725,0.17868 0.20321,0.32383 0.30483,0.48574 0.14952,0.11311 0.2819,0.25758 0.44877,0.33934 0.88027,0.43128 2.07087,0.11924 2.90059,-0.29066 0.32773,-0.16196 0.63301,-0.37036 0.94953,-0.55558 0.88699,-0.58689 1.7977,-1.13554 2.66095,-1.76073 0.35637,-0.25807 0.66807,-0.57947 0.99034,-0.88354 0.99534,-0.93914 1.92301,-1.95901 2.76612,-3.05215 0.26622,-0.34517 0.51481,-0.70512 0.77221,-1.05766 0.22595,-0.33294 0.45654,-0.6624 0.67785,-0.99883 0.19375,-0.29448 0.85634,-1.3517 1.06423,-1.69091 0.30384,-0.49576 0.59165,-0.989 0.84114,-1.51703 0.0157,-0.0754 0.069,-0.15249 0.0482,-0.22664 -0.0229,-0.0813 -0.0918,-0.22125 -0.16499,-0.18596 -0.75055,0.36237 -1.45608,0.82549 -2.14701,1.30224 -0.12031,0.083 -0.17794,0.23841 -0.26303,0.36072 -0.17778,0.2555 -0.5911,0.8882 -0.74432,1.12115 -0.92644,1.50318 -1.86397,3.00511 -2.67111,4.58525 -0.16326,0.31952 -0.31203,0.64702 -0.46805,0.97051 -0.46606,1.23993 -1.10058,2.89287 -0.60871,4.23294 0.0711,0.1936 0.19667,0.35959 0.29499,0.53939 0.13961,0.13038 0.25888,0.29019 0.41878,0.39123 0.77982,0.49278 1.89876,0.29763 2.71564,0.045 0.27887,-0.0862 0.54848,-0.20306 0.82269,-0.30459 1.58157,-0.78244 1.20699,-0.56187 3.47312,-2.05717 0.30852,-0.20359 0.59932,-0.43684 0.884,-0.67612 0.97048,-0.81573 1.81178,-1.75872 2.64757,-2.72119 0.87615,-1.06167 1.63915,-2.21598 2.19964,-3.49647 0.20806,-0.47534 0.30094,-0.76804 0.46651,-1.24409 0.17108,-0.31189 0.17534,-1.18235 0.40351,-1.42944 0.0195,-0.0212 0.0496,-0.0269 0.0742,-0.0403 -0.62466,0.39581 -1.24932,0.79165 -1.87397,1.18748 0,0 1.76456,-1.49776 1.76456,-1.49776 v 0 c -0.6557,0.41303 -1.3114,0.82605 -1.96712,1.23904 -0.17995,0.47965 -0.16726,1.01314 -0.33571,1.49803 -0.15161,0.48836 -0.20385,0.69414 -0.41266,1.18749 -0.52899,1.24993 -1.28103,2.36736 -2.12873,3.39761 -0.27281,0.31141 -0.53637,0.63212 -0.8184,0.93422 -0.60031,0.64303 -1.19388,1.20928 -1.87244,1.75886 -0.29167,0.23622 -0.79695,0.29713 -0.90236,0.6692 -0.0916,0.32348 0.72898,-0.16011 0.84702,-0.47388 0.11388,-0.30249 -0.55335,0.28582 -0.83005,0.42872 -0.2646,0.10346 -0.52481,0.22038 -0.79382,0.31013 -0.73605,0.24549 -1.81594,0.48442 -2.54873,0.0864 -0.14657,-0.0797 -0.25938,-0.21512 -0.38909,-0.32268 -0.0935,-0.15658 -0.21355,-0.29882 -0.28078,-0.46988 -0.4908,-1.24879 0.13839,-2.89309 0.58317,-4.0467 0.15369,-0.3188 0.30022,-0.64167 0.46127,-0.9564 0.81779,-1.5982 1.77203,-3.11679 2.75969,-4.60165 0.21016,-0.2993 0.57696,-0.83642 0.82084,-1.13296 0.1,-0.12166 0.46106,-0.40566 0.31941,-0.34605 -0.60686,0.25539 -1.16238,0.63022 -1.74357,0.94537 5.9e-4,-0.0537 0.0506,-0.14692 0.001,-0.16067 -0.0476,-0.013 -0.0174,0.10253 -0.0263,0.15379 -0.62074,1.45713 -1.54254,2.75356 -2.39128,4.06589 -0.25566,0.34787 -0.50262,0.70305 -0.76697,1.04357 -0.57284,0.73786 -1.1279,1.37884 -1.77571,2.0456 -0.32453,0.33405 -0.657,0.65991 -0.99953,0.97324 -0.3336,0.30517 -0.80807,0.47702 -1.02789,0.88137 -0.13196,0.24294 0.48668,-0.22224 0.73001,-0.33338 -0.29655,0.18202 -0.58252,0.38494 -0.8897,0.54614 -0.75851,0.39815 -1.87621,0.75417 -2.71249,0.40992 -0.14882,-0.0613 -0.27131,-0.17849 -0.40695,-0.26776 -0.0944,-0.13559 -0.21568,-0.25436 -0.28305,-0.40693 -0.0789,-0.17849 -0.11962,-0.37497 -0.14831,-0.56953 -0.17003,-1.15293 0.1912,-2.30262 0.55728,-3.36928 0.13162,-0.31672 0.25089,-0.63947 0.39481,-0.95015 0.6157,-1.32918 1.44698,-2.54037 2.35256,-3.66297 0.10901,-0.12686 0.21169,-0.26 0.32684,-0.3806 0.0848,-0.089 0.38187,-0.29744 0.27232,-0.24679 -0.621,0.28712 -1.20378,0.65993 -1.81853,0.96172 -0.0249,0.0111 0.0259,-0.11145 0.0273,-0.0825 0.003,0.0687 -0.003,0.1393 -0.0209,0.20529 -0.0417,0.14915 -0.10571,0.29013 -0.15874,0.43517 -0.0946,0.19469 -0.18161,0.39371 -0.28391,0.58401 -0.82953,1.54341 -1.94261,2.90007 -3.09299,4.18194 -0.66377,0.6706 -0.99635,1.03419 -1.71127,1.6458 -0.29588,0.25314 -0.83599,0.33286 -0.91138,0.72724 -0.0636,0.33236 0.56644,-0.31958 0.85971,-0.45695 0.50684,-0.23739 -1.90514,1.02995 -1.51858,0.71696 -0.22932,0.0609 -0.45475,0.14153 -0.68797,0.18258 -0.70977,0.125 -1.48603,0.0355 -1.98326,-0.56867 -0.11666,-0.14172 -0.1994,-0.3112 -0.29909,-0.46681 -0.20803,-0.56682 -0.29508,-0.68826 -0.34128,-1.32307 -0.0925,-1.27241 0.26683,-2.53454 0.67311,-3.71312 0.12501,-0.28016 0.23983,-0.56566 0.37497,-0.84051 0.48671,-0.98998 1.10463,-1.91557 1.79729,-2.75516 0,0 -2.05901,0.91654 -2.05901,0.91654 z"/>
    <path style="fill:#000000;stroke-width:0.203094" id="path218" d="m 199.50973,97.829237 c 0.96124,-0.881098 -0.93348,0.722988 -1.37564,1.141913 -0.14657,0.138469 0.31831,-0.215293 0.48448,-0.296524 0.68775,-0.335901 1.28408,-0.374997 2.00063,-0.399632 1.21503,0.154294 2.42273,0.708394 3.40846,1.770226 0.1873,0.20188 0.35529,0.43832 0.53293,0.65747 0.15025,0.26265 0.31972,0.50444 0.45063,0.78748 0.385,0.83255 0.59811,1.85862 0.5598,2.86181 -0.033,0.86944 -0.18183,1.23991 -0.39438,2.05013 -0.16042,0.36657 -0.30275,0.75106 -0.48147,1.09969 -0.48847,0.95268 -0.98265,1.63411 -1.61092,2.41379 -1.19916,1.48831 -2.51596,2.72959 -3.836,3.9778 -1.70873,1.59846 -3.57698,2.82853 -5.56545,4.43915 -0.93165,0.7546 -1.85387,1.53302 -2.78079,2.29963 -0.2313,0.25238 -0.484,0.46877 -0.69391,0.75756 -0.54684,0.75224 -0.48521,1.39484 0.29313,1.70926 0.60878,0.24592 1.57345,0.14032 2.1583,0.12573 3.48897,-0.41051 6.91626,-1.5329 10.3194,-2.67132 1.1039,-0.42034 2.222,-0.77542 3.3114,-1.27283 0.17185,-0.0786 0.67238,-0.32318 0.87547,-0.49206 0.72895,-0.60617 1.44606,-1.24156 2.1691,-1.86237 0.005,-0.0853 0.01,-0.17118 0.0166,-0.2569 0,0 -2.15955,1.4697 -2.15955,1.4697 v 0 c -0.0167,0.0169 -0.0332,0.0325 -0.0498,0.0495 0.61103,-0.49621 1.22176,-0.99315 1.83313,-1.48844 0.11925,-0.0973 -0.2331,0.20775 -0.35671,0.2923 -0.19525,0.13362 -0.39524,0.25315 -0.59812,0.36041 -1.13193,0.59862 -2.31016,0.99449 -3.46743,1.4717 -3.35016,1.18229 -6.73641,2.29408 -10.18788,2.61283 -0.804,-0.001 -1.21169,0.0635 -1.96462,-0.14969 -0.14066,-0.04 -0.29806,-0.066 -0.40682,-0.20074 -0.20655,-0.25534 0.2517,-0.85667 0.26175,-0.87001 0.19207,-0.25481 0.41741,-0.45217 0.62611,-0.67829 -0.26454,0.2153 -1.06415,0.84478 -0.79363,0.64564 0.42942,-0.31621 0.84674,-0.66541 1.27058,-0.99675 2.60587,-2.03772 5.2231,-4.05351 7.73389,-6.33043 1.34659,-1.27903 2.69032,-2.55195 3.91318,-4.07577 0.66513,-0.82884 1.17387,-1.52575 1.68085,-2.54524 0.18595,-0.37395 0.33071,-0.78706 0.49607,-1.18054 0.21869,-0.90583 0.35143,-1.22038 0.36753,-2.1822 0.0247,-1.47857 -0.41892,-2.79566 -1.09447,-3.86924 -0.18348,-0.230624 -0.35654,-0.479885 -0.55042,-0.69218 -1.0055,-1.100917 -2.23923,-1.69256 -3.47853,-1.930775 -0.68374,-0.0054 -1.34494,0.0054 -2.01112,0.264337 -1.14685,0.443387 -2.11799,1.528238 -3.11127,2.436796 0,0 2.20644,-1.252078 2.20644,-1.252078 z"/>
    <path style="fill:#000000;stroke-width:0.205967" id="path220" d="m 194.79289,114.15313 c 2.59702,-0.28455 5.19683,-0.55699 7.79649,-0.83073 0,0 2.49831,-1.25436 2.49831,-1.25436 v 0 c -2.49883,0.26015 -4.99714,0.53708 -7.51584,0.69726 0,0 -2.77896,1.38783 -2.77896,1.38783 z"/>
    <path style="fill:#000000;stroke-width:0.16385" id="path222" d="m 189.4537,101.687 c 0.47833,-0.0867 0.94654,-0.21954 1.4106,-0.36779 0.39308,-0.13726 0.77156,-0.32387 1.12825,-0.54596 2.14622,-1.336419 1.48913,-0.7691 2.31807,-1.511402 0.38437,-0.323239 0.63877,-0.755154 0.85441,-1.213257 0.14326,-0.357563 0.24952,-0.730524 0.33174,-1.10863 0.0678,-0.348016 0.0348,-0.701215 -0.0782,-1.033444 -0.11771,-0.260144 -0.33229,-0.367259 -0.58877,-0.410294 -0.20789,-0.013 -0.39912,0.05479 -0.59177,0.125559 -0.81578,0.439158 -1.72986,0.787434 -2.34253,1.518051 -0.10936,0.05628 -0.15508,0.184809 -0.24315,0.266199 -0.1669,0.154162 0.0438,-0.09305 -0.1297,0.123887 -0.15473,0.180723 -0.29492,0.368225 -0.45843,0.540032 -0.27013,0.286352 -0.49264,0.622964 -0.69352,0.966207 -0.10797,0.227993 -0.24666,0.441832 -0.32055,0.686653 -0.14483,0.480129 0.0591,-0.111814 -0.0883,0.304909 -0.0855,0.25221 -0.13422,0.51553 -0.10815,0.78245 0.009,0.1733 0.0556,0.33628 0.10224,0.50118 0,0 1.9723,-1.13803 1.9723,-1.13803 v 0 c -0.0398,-0.14711 -0.0741,-0.294805 -0.0791,-0.448782 0.009,-0.241681 0.0628,-0.474838 0.14101,-0.701939 0.0968,-0.330687 0.23727,-0.63968 0.41546,-0.930917 0.21454,-0.333919 0.44882,-0.65322 0.72665,-0.931715 0.15769,-0.179608 0.30252,-0.371698 0.46983,-0.541982 0.13265,-0.121101 0.24019,-0.271678 0.37368,-0.392556 0.045,-0.04421 0.19483,-0.156949 0.14152,-0.124816 -3.232,1.94835 -2.32653,1.407872 -1.64056,1.006345 0.15996,-0.108843 0.34807,-0.176451 0.53421,-0.212521 0.16865,-0.03901 0.35339,-0.01114 0.44465,0.160663 0.0988,0.293744 0.10397,0.60309 0.0299,0.905025 -0.0876,0.360683 -0.19412,0.718339 -0.34813,1.054116 -0.22238,0.432527 -0.49642,0.818805 -0.87379,1.116209 -0.72643,0.5818 -0.25022,0.18462 1.43966,-0.820181 0.0861,-0.05126 -0.16882,0.108657 -0.25492,0.15992 -0.11544,0.06872 -0.43823,0.248406 -0.55908,0.30565 -0.093,0.04402 -0.18948,0.07968 -0.2842,0.119429 -0.44248,0.150632 -0.88982,0.282692 -1.34845,0.365292 0,0 -1.8027,1.42618 -1.8027,1.42618 z"/>
    <path style="fill:none;fill-rule:evenodd;stroke:#000000;stroke-width:0.264583" id="path224" d="m 93.360115,121.14137 c -0.25584,0.0758 -0.228405,-0.30747 -0.125992,-0.42522 0.277534,-0.31911 0.773955,-0.12514 0.976439,0.17324 0.362195,0.53373 0.05413,1.24191 -0.472471,1.52765 -0.772811,0.41935 -1.717443,-0.0156 -2.078869,-0.7717 -0.481723,-1.00781 0.08451,-2.19583 1.070933,-2.63008 1.241319,-0.54647 2.675619,0.153 3.181299,1.37016 0.612447,1.47414 -0.221249,3.1562 -1.669395,3.73252 -1.706591,0.67916 -3.637283,-0.28933 -4.28373,-1.96863 -0.746348,-1.93882 0.357294,-4.1187 2.267859,-4.83495 2.170905,-0.81384 4.600341,0.42519 5.386159,2.56709 0.88157,2.4029 -0.49302,5.08216 -2.866321,5.93738 -2.634813,0.94945 -5.564099,-0.56082 -6.48859,-3.16555" transform="matrix(1.7386179,0,0,1.8573755,-7.247406,-120.99237)"/>
    <path style="fill:none;fill-rule:evenodd;stroke:#000000;stroke-width:0.264583" id="path226" d="m 93.360115,122.65328 c 0.293743,-0.10423 0.285424,0.34454 0.173239,0.48822 -0.304014,0.38938 -0.895052,0.1938 -1.149677,-0.14174 -0.455466,-0.6002 -0.139882,-1.44529 0.456721,-1.81114 0.875539,-0.53689 2.004285,-0.088 2.472594,0.77171 0.624183,1.14579 0.03711,2.56656 -1.086682,3.13405 -1.414178,0.71413 -3.130447,-0.0131 -3.795511,-1.40166 -0.80548,-1.68168 0.06305,-3.69525 1.716643,-4.45697 1.948698,-0.89767 4.26061,0.11273 5.118427,2.03162 0.990384,2.21543 -0.16227,4.82636 -2.346603,5.77989 -2.481979,1.08346 -5.392371,-0.21171 -6.441344,-2.66159 -1.176789,-2.7484 0.261057,-5.95858 2.976565,-7.1028 3.014728,-1.2703 6.524933,0.31036 7.764259,3.29154" transform="matrix(2.1665505,0,0,2.5222635,-47.128375,-205.03465)"/>
  </g>
</svg>